<svg id="_x33_0" enable-background="new 0 0 64 64" height="512" viewBox="0 0 64 64" width="512" xmlns="http://www.w3.org/2000/svg"><g><g><g><path d="m46.62 51.48-.62.52-.62-.52c-.45-.38-.88-.78-1.28-1.2 0 0 0 0 0-.01l.9-4.27h2l.9 4.27v.01c-.4.42-.83.82-1.28 1.2z" fill="#ffeaa7"/></g><g><path d="m46 42 1.94 1.17-.94 2.83h-2l-.94-2.83z" fill="#fcd770"/></g><g><path d="m47.94 43.17 3.17 1.9c-.69 1.93-1.77 3.7-3.21 5.2l-.9-4.27z" fill="#b4dd7f"/></g><g><path d="m45 46-.9 4.27c-1.44-1.5-2.52-3.27-3.21-5.2l3.17-1.9z" fill="#b4dd7f"/></g><g><path d="m51.99 40.64c-.07 1.53-.36 3.02-.88 4.43l-3.17-1.9-1.94-1.17 4-2c.68.17 1.35.39 1.99.64z" fill="#a0d468"/></g><g><path d="m46 42-1.94 1.17-3.17 1.9c-.52-1.41-.81-2.9-.88-4.43.64-.25 1.31-.47 1.99-.64z" fill="#a0d468"/></g><g><path d="m13.25 45.99c2.27-.16 4.19-1.76 4.75-3.99.56 2.23 2.48 3.83 4.75 3.99-.92 2.1-2.32 3.99-4.13 5.49l-.62.52-.62-.52c-1.81-1.5-3.21-3.39-4.13-5.49z" fill="#ff826e"/></g><g><path d="m22 40c.68.17 1.35.38 1.99.64-.08 1.86-.51 3.68-1.24 5.35-2.27-.16-4.19-1.76-4.75-3.99z" fill="#fc6e51"/></g><g><path d="m18 42c-.56 2.23-2.48 3.83-4.75 3.99-.73-1.67-1.16-3.49-1.24-5.35.64-.25 1.31-.47 1.99-.64z" fill="#fc6e51"/></g><g><path d="m46 56v-4c4.84-.6 9.13-3.36 11.69-7.49 2.7 2.87 4.31 6.71 4.31 10.86v6.63h-6-10z" fill="#969faa"/></g><g><path d="m36 62h-6v-6.63c0-2.77.72-5.41 2.01-7.71.55-.99 1.2-1.92 1.97-2.77.09-.13.21-.25.33-.38 2.56 4.13 6.85 6.89 11.69 7.49v4 6z" fill="#969faa"/></g><g><path d="m47.9 50.28s0 0 0-.01c1.44-1.5 2.52-3.27 3.21-5.2.52-1.41.81-2.9.88-4.43 2.2.87 4.13 2.2 5.7 3.87-2.56 4.13-6.85 6.89-11.69 7.49l.62-.52c.45-.38.88-.78 1.28-1.2z" fill="#e6e9ed"/></g><g><path d="m44.1 50.28c.4.42.83.82 1.28 1.2l.62.52c-4.84-.6-9.13-3.36-11.69-7.49 1.57-1.67 3.5-3 5.7-3.87.07 1.53.36 3.02.88 4.43.69 1.93 1.77 3.7 3.21 5.2z" fill="#e6e9ed"/></g><g><path d="m18 56v-4c4.84-.6 9.13-3.36 11.69-7.49.9.95 1.67 2.01 2.31 3.15h.01c-1.29 2.3-2.01 4.94-2.01 7.71v6.63h-12z" fill="#969faa"/></g><g><path d="m6.31 44.51c2.56 4.13 6.85 6.89 11.69 7.49v4 6h-10-6v-6.63c0-2.47.58-4.84 1.61-6.96.7-1.43 1.61-2.74 2.7-3.9z" fill="#969faa"/></g><g><path d="m23.99 40.64c2.2.87 4.13 2.2 5.7 3.87-2.56 4.13-6.85 6.89-11.69 7.49l.62-.52c1.81-1.5 3.21-3.39 4.13-5.49.73-1.67 1.16-3.49 1.24-5.35z" fill="#e6e9ed"/></g><g><path d="m18 52c-4.84-.6-9.13-3.36-11.69-7.49 1.57-1.67 3.5-3 5.7-3.87.08 1.86.51 3.68 1.24 5.35.92 2.1 2.32 3.99 4.13 5.49z" fill="#e6e9ed"/></g><g><path d="m50 18h-5-4c-1.79.6-3 2.27-3 4.16v1.84h-1c-.92 0-1.74.41-2.29 1.06-.35-1.28-.58-2.58-.67-3.9-.02-.44-.04-.88-.04-1.32 0-1.69.42-3.28 1.17-4.67s1.83-2.57 3.12-3.46c.19.18.43.29.71.29h14c.28 0 .52-.11.71-.29 2.59 1.78 4.29 4.75 4.29 8.13 0 1.76-.24 3.52-.71 5.22-.55-.65-1.37-1.06-2.29-1.06h-1v-3c0-1.66-1.34-3-3-3z" fill="#656d78"/></g><g><path d="m53.71 11.71c-.19.18-.43.29-.71.29h-14c-.28 0-.52-.11-.71-.29-.18-.19-.29-.43-.29-.71v-5h16v5c0 .28-.11.52-.29.71z" fill="#ccd1d9"/></g><g><path d="m58 3v3h-4-16-3c-.55 0-1-.45-1-1v-2c0-.55.45-1 1-1h22c.55 0 1 .45 1 1z" fill="#aab2bd"/></g><g><path d="m30 3v2c0 .55-.45 1-1 1h-3-16-3c-.55 0-1-.45-1-1v-2c0-.55.45-1 1-1h22c.55 0 1 .45 1 1z" fill="#aab2bd"/></g><g><path d="m26 6v5c0 .25-.09.48-.25.66-.18.21-.45.34-.75.34h-14c-.3 0-.57-.13-.75-.34-.16-.18-.25-.41-.25-.66v-5z" fill="#ccd1d9"/></g><g><path d="m30.47 29.7 1.06 1.6c.31.46.47.99.47 1.54 0 .74-.29 1.45-.82 1.98l-.47.47c-.46.46-.71 1.07-.71 1.71s.25 1.25.71 1.71l1.66 1.66c1.04 1.04 1.63 2.46 1.63 3.94 0 .19-.01.38-.03.57l.01.01c-.77.85-1.42 1.78-1.97 2.77h-.01c-.64-1.14-1.41-2.2-2.31-3.15-1.57-1.67-3.5-3-5.7-3.87-.64-.26-1.31-.47-1.99-.64l-.82-4.12c2.75-.54 4.82-2.97 4.82-5.88h1c.83 0 1.58-.34 2.12-.88.14-.13.26-.28.82-1.51h.09c-.02.18-.03.37-.03.55 0 .55.16 1.08.47 1.54z" fill="#b27946"/></g><g><path d="m6.88 29.12c.54.54 1.29.88 2.12.88h1c0 2.91 2.07 5.34 4.82 5.88l-.82 4.12c-.68.17-1.35.39-1.99.64-2.2.87-4.13 2.2-5.7 3.87-1.09 1.16-2 2.47-2.7 3.9l-.67-1c-.61-.92-.94-2-.94-3.1 0-1.48.59-2.9 1.63-3.94l1.66-1.66c.46-.46.71-1.07.71-1.71s-.25-1.25-.71-1.71l-.47-.47c-.53-.53-.82-1.24-.82-1.98 0-.55.16-1.08.47-1.54l1.06-1.6c.31-.46.47-.99.47-1.54 0-.18-.01-.37-.03-.55h.09c.56 1.23.68 1.38.82 1.51z" fill="#b27946"/></g><g><path d="m11 12h14c.3 0 .57-.13.75-.34l4.02 4.08c1.43 1.45 2.23 3.4 2.23 5.43 0 1.2-.28 2.39-.82 3.46l-.66 1.34c-.26.52-.42 1.07-.49 1.64h-.09c.04-.2.06-.4.06-.61 0-1.66-1.34-3-3-3h-1v-.93c0-1.31-.52-2.57-1.44-3.51-.45.28-.99.44-1.56.44h-1-3c-.34 0-.68-.03-1-.1-1.22-.25-2.28-.94-3-1.9l-.98.2c-2.34.46-4.02 2.52-4.02 4.9v.9h-1c-1.66 0-3 1.34-3 3 0 .21.02.41.06.61h-.09c-.07-.57-.23-1.12-.49-1.64l-.66-1.34c-.54-1.07-.82-2.26-.82-3.46 0-2.03.8-3.98 2.23-5.43l4.02-4.08c.18.21.45.34.75.34z" fill="#b27946"/></g><g><path d="m57.29 25.06c.44.52.71 1.2.71 1.94 0 .83-.34 1.58-.88 2.12s-1.29.88-2.12.88h-1v-6h1c.92 0 1.74.41 2.29 1.06z" fill="#f0d0b4"/></g><g><path d="m49.18 35.88.82 4.12-4 2-4-2 .82-4.12c.38.08.78.12 1.18.12h4c.4 0 .8-.04 1.18-.12z" fill="#f0d0b4"/></g><g><path d="m38 24v6h-1c-.83 0-1.58-.34-2.12-.88s-.88-1.29-.88-2.12c0-.74.27-1.42.71-1.94.55-.65 1.37-1.06 2.29-1.06z" fill="#f0d0b4"/></g><g><path d="m45 18h5 1c1.66 0 3 1.34 3 3v3 6c0 2.91-2.07 5.34-4.82 5.88-.38.08-.78.12-1.18.12h-4c-.4 0-.8-.04-1.18-.12-2.75-.54-4.82-2.97-4.82-5.88v-6-1.84c0-1.89 1.21-3.56 3-4.16z" fill="#f0d0b4"/></g><g><path d="m27 24c1.66 0 3 1.34 3 3 0 .21-.02.41-.06.61-.56 1.23-.68 1.38-.82 1.51-.54.54-1.29.88-2.12.88h-1v-6z" fill="#f0d0b4"/></g><g><path d="m21.18 35.88.82 4.12-4 2-4-2 .82-4.12c.38.08.78.12 1.18.12h4c.4 0 .8-.04 1.18-.12z" fill="#f0d0b4"/></g><g><path d="m10 24v-.9c0-2.38 1.68-4.44 4.02-4.9l.98-.2c.72.96 1.78 1.65 3 1.9.32.07.66.1 1 .1h3 1c.57 0 1.11-.16 1.56-.44.92.94 1.44 2.2 1.44 3.51v.93 6c0 2.91-2.07 5.34-4.82 5.88-.38.08-.78.12-1.18.12h-4c-.4 0-.8-.04-1.18-.12-2.75-.54-4.82-2.97-4.82-5.88z" fill="#f0d0b4"/></g><g><path d="m10 24v6h-1c-.83 0-1.58-.34-2.12-.88-.14-.13-.26-.28-.82-1.51-.04-.2-.06-.4-.06-.61 0-1.66 1.34-3 3-3z" fill="#f0d0b4"/></g><g><path d="m14 28h8c0 2.21-1.79 4-4 4-1.1 0-2.1-.45-2.83-1.17-.72-.73-1.17-1.73-1.17-2.83z" fill="#ff826e"/></g></g><g><circle cx="42" cy="24" r="1"/><circle cx="50" cy="24" r="1"/><path d="m49 15.172h2v5.657h-2z" transform="matrix(.707 -.707 .707 .707 1.917 40.627)"/><path d="m44 15.172h2v5.657h-2z" transform="matrix(.707 -.707 .707 .707 .452 37.092)"/><path d="m51 29h-2c0 1.103-.897 2-2 2h-4v2h4c2.206 0 4-1.794 4-4z"/><circle cx="14" cy="24" r="1"/><circle cx="22" cy="24" r="1"/><path d="m50.863 39.213-.525-2.623c2.408-.857 4.208-2.993 4.583-5.59h.079c2.206 0 4-1.794 4-4 0-.79-.238-1.523-.635-2.145.415-1.64.635-3.324.635-5.017 0-3.295-1.504-6.372-4.045-8.423.029-.134.045-.272.045-.415v-4h2v4h2v-8c0-1.103-.897-2-2-2h-22c-1.103 0-2 .897-2 2v2c0 1.103.897 2 2 2h2v4c0 .143.016.282.045.416-2.539 2.051-4.045 5.13-4.045 8.422 0 1.693.22 3.377.635 5.017-.397.622-.635 1.355-.635 2.145 0 2.206 1.794 4 4 4h.08c.374 2.597 2.174 4.733 4.582 5.59l-.525 2.623c-2.4.698-4.549 1.892-6.35 3.459-.289-1.129-.869-2.167-1.714-3.013l-1.659-1.659c-.268-.267-.414-.622-.414-1s.146-.733.414-1l.476-.475c.716-.716 1.11-1.667 1.11-2.68 0-.751-.221-1.478-.637-2.102l-1.063-1.595c-.196-.295-.3-.638-.3-.993 0-.602.142-1.204.411-1.741l.667-1.333c.604-1.207.922-2.558.922-3.907 0-2.312-.895-4.49-2.518-6.136l-3.539-3.586c.035-.145.057-.296.057-.452v-4h2c1.103 0 2-.897 2-2v-2c0-1.103-.897-2-2-2h-22c-1.103 0-2 .897-2 2v2c0 1.103.897 2 2 2h2v4c0 .156.022.307.056.453l-3.539 3.585c-1.622 1.646-2.517 3.824-2.517 6.136 0 1.35.318 2.7.922 3.907l.667 1.333c.269.538.411 1.14.411 1.741 0 .354-.104.698-.301.993l-1.063 1.594c-.415.625-.636 1.352-.636 2.103 0 1.012.395 1.964 1.11 2.679l.476.476c.268.267.414.622.414 1s-.146.733-.414 1l-1.659 1.659c-1.242 1.242-1.927 2.895-1.927 4.652 0 1.303.382 2.564 1.104 3.649l.357.535c-.942 2.112-1.461 4.442-1.461 6.874v7.631h62v-7.631c0-7.525-4.962-14.07-12.137-16.156zm5.532 5.413c-1.765 2.54-4.217 4.456-7.063 5.523 1.888-2.287 3.115-5.064 3.515-8.019 1.313.661 2.506 1.503 3.548 2.496zm-11.395 12.374v4h-8v-9h-2v9h-4v-5.631c0-3.457 1.19-6.68 3.223-9.236 2.602 3.546 6.432 5.928 10.777 6.7v2.167h-2v2zm-26-2v-2.14c4.342-.769 8.163-3.167 10.767-6.705.392.493.754 1.011 1.083 1.554-1.182 2.314-1.85 4.92-1.85 7.66v5.631h-10v-4h2v-2zm-4.374-35.905c1.096 1.169 2.649 1.905 4.374 1.905h4c.445 0 .865-.09 1.265-.224.472.669.735 1.46.735 2.295v6.929c0 2.757-2.243 5-5 5h-4c-2.757 0-5-2.243-5-5v-6.901c0-1.9 1.353-3.55 3.216-3.922zm3.374 25.233c.792 1.126 1.932 1.96 3.262 2.372-.827 1.508-1.919 2.873-3.262 3.997-1.343-1.124-2.434-2.489-3.261-3.997 1.329-.412 2.469-1.246 3.261-2.372zm6.846-2.193c1.297.657 2.494 1.495 3.545 2.495-1.765 2.538-4.216 4.451-7.059 5.518 1.887-2.285 3.114-5.059 3.514-8.013zm-1.929-.81c-.117 1.222-.378 2.418-.802 3.554-1.276-.307-2.334-1.186-2.879-2.379l2.855-1.427c.279.076.554.16.826.252zm-6.917-4.325h4c.127 0 .251-.012.376-.019l.493 2.466-2.869 1.435-2.869-1.435.493-2.466c.125.007.249.019.376.019zm.763 5.5c-.545 1.193-1.602 2.072-2.879 2.379-.426-1.139-.687-2.34-.803-3.566.269-.091.546-.167.823-.243zm-5.61-.37c.4 2.955 1.627 5.732 3.515 8.019-2.846-1.068-5.298-2.983-7.063-5.523 1.042-.993 2.235-1.835 3.548-2.496zm30.751-1.06 2.019 1.01-2.457 1.474c-.193-.731-.312-1.481-.385-2.241.27-.091.546-.167.823-.243zm8.192 0c.277.076.553.152.823.243-.072.76-.191 1.51-.385 2.241l-2.457-1.474zm-4.096 2.096.742.445-.463 1.389h-.559l-.463-1.388zm-.189 3.834h.378l.62 2.946c-.262.257-.526.513-.81.75-.283-.237-.547-.493-.809-.75zm2.634 1.01-.411-1.951.464-1.394 1.357.814c-.381.89-.852 1.737-1.41 2.531zm-4.944-3.345.464 1.394-.411 1.951c-.558-.794-1.029-1.641-1.411-2.531zm11.499-15.665v-4c1.103 0 2 .897 2 2s-.897 2-2 2zm-20-26h22v2h-22zm18 4v4h-14v-4zm-18 20c0-1.103.897-2 2-2v4c-1.103 0-2-.897-2-2zm4 3v-7.838c0-1.46.931-2.752 2.316-3.213l-.633-1.897c-2.203.734-3.683 2.787-3.683 5.11v.838c-.591 0-1.148.137-1.653.368-.227-1.162-.347-2.344-.347-3.53 0-2.724 1.266-5.27 3.394-6.942.193.062.393.104.606.104h14c.213 0 .414-.042.607-.104 2.128 1.672 3.393 4.215 3.393 6.942 0 1.186-.12 2.368-.346 3.53-.506-.231-1.063-.368-1.654-.368v-2h-2v9c0 2.757-2.243 5-5 5h-4c-2.757 0-5-2.243-5-5zm5 7h4c.127 0 .251-.012.376-.019l.493 2.466-2.869 1.435-2.869-1.435.493-2.466c.125.007.249.019.376.019zm-4.847 5.13c.4 2.955 1.627 5.732 3.515 8.019-2.846-1.068-5.298-2.983-7.063-5.523 1.042-.993 2.235-1.835 3.548-2.496zm-8.677-8.02-.476.475c-.645.645-1 1.502-1 2.415s.355 1.77 1 2.414l1.659 1.659c.864.865 1.341 2.015 1.341 3.238 0 .062-.007.123-.01.184-.35.414-.681.842-.99 1.288-2.193-3.158-5.433-5.482-9.136-6.563l-.526-2.63c2.408-.857 4.208-2.993 4.583-5.59h.079c.965 0 1.84-.357 2.531-.929.036.062.065.126.105.186l1.063 1.595c.197.295.301.638.301.993 0 .478-.187.927-.524 1.265zm-3.476-9.11c1.103 0 2 .897 2 2s-.897 2-2 2zm-20-22h22l.001 2h-22.001zm18 4v4h-14v-4zm-18.059 9.443 3.49-3.536c.182.055.37.093.569.093h14c.199 0 .387-.038.569-.092l3.49 3.536c1.252 1.267 1.941 2.948 1.941 4.73 0 1.041-.246 2.082-.711 3.012l-.17.34c-.733-.922-1.851-1.526-3.119-1.526h-.003c-.014-1.201-.381-2.346-1.049-3.318.647-.711 1.052-1.647 1.052-2.682h-2c0 1.103-.897 2-2 2v-4h-2v4h-2v-4h-2v3.444c-1.19-.694-2-1.97-2-3.444h-2c0 .822.167 1.606.467 2.32-2.573.684-4.414 2.997-4.459 5.68h-.008c-1.268 0-2.386.604-3.119 1.526l-.17-.34c-.465-.93-.711-1.972-.711-3.012 0-1.782.689-3.463 1.941-4.731zm2.059 12.557c-1.103 0-2-.897-2-2s.897-2 2-2zm-6 15.311c0-1.223.477-2.373 1.341-3.238l1.659-1.658c.645-.645 1-1.502 1-2.415s-.355-1.77-1-2.414l-.476-.477c-.337-.337-.524-.786-.524-1.264 0-.354.104-.698.301-.993l1.063-1.594c.04-.06.069-.125.105-.186.691.571 1.566.928 2.531.928h.08c.374 2.597 2.174 4.733 4.582 5.59l-.525 2.623c-4.083 1.187-7.445 3.816-9.586 7.254-.355-.663-.551-1.397-.551-2.156zm0 11.058c0-3.457 1.19-6.68 3.223-9.236 2.602 3.546 6.432 5.928 10.777 6.7v2.167h-2v2h2v4h-8v-9h-2v9h-4zm58 5.631h-4v-9h-2v9h-8v-4h2v-2h-2v-2.14c4.349-.77 8.176-3.175 10.78-6.724 2.03 2.556 3.22 5.777 3.22 9.233z"/><path d="m18 33c2.757 0 5-2.243 5-5v-1h-10v1c0 2.757 2.243 5 5 5zm2.829-4c-.413 1.164-1.525 2-2.829 2s-2.416-.836-2.829-2z"/><circle cx="18" cy="48" r="1"/></g></g></svg>