<?xml version="1.0" encoding="utf-8"?>
<svg id="master-artboard" viewBox="0 0 1400 980" xmlns="http://www.w3.org/2000/svg" width="1400px" height="980px" version="1.1" style="shape-rendering:geometricPrecision; text-rendering:geometricPrecision; image-rendering:optimizeQuality; fill-rule:evenodd; clip-rule:evenodd"><rect id="ee-background" x="0" y="0" width="1400" height="980" style="fill: white; fill-opacity: 1; pointer-events: none;"/>
 
 <metadata id="CorelCorpID_0Corel-Layer"/><path d="M 11853 1720 L 11853 1841 L 7251 1841 L 7251 1720 Z" class="fil1" style="fill: rgb(255, 240, 0);" transform="matrix(0.12255483120679854, 0, 0, 0.12255483120679854, -34.85349409102855, -18.196776517535454)"/><path d="M 11853 5821 L 11853 6322 L 8247 6322 L 8247 5821 Z" class="fil1" style="fill: rgb(255, 240, 0);" transform="matrix(0.12255483120679854, 0, 0, 0.12255483120679854, -34.85349409102855, -18.196776517535454)"/><path d="M 0 4953 L 0 4774 L 4245 4774 L 4245 4953 Z" class="fil2" style="fill: rgb(151, 209, 227);" transform="matrix(0.12255483120679854, 0, 0, 0.12255483120679854, -34.85349409102855, -18.196776517535454)"/><path class="fil3" d="M6680 6920c0,0 278,384 449,559 171,176 222,259 222,259l435 -305c0,0 -730,-647 -842,-712 -112,-65 -264,199 -264,199z" style="fill: rgb(253, 229, 169);" transform="matrix(0.12255483120679854, 0, 0, 0.12255483120679854, -34.85349409102855, -18.196776517535454)"/><path class="fil3" d="M4969 6635c0,0 -163,222 -225,592 -62,370 -225,415 -225,415 0,0 590,110 833,-5 244,-115 287,-221 287,-221 0,0 -62,177 -97,265 -35,88 -110,163 -110,163l61 31c0,0 109,-214 212,-475 102,-261 128,-314 128,-314l131 40c0,0 113,472 154,598 41,125 59,217 59,217 0,0 339,-48 441,-70 101,-22 176,-44 176,-44l-44 -296c0,0 102,155 106,190 4,35 35,66 35,66l75 -18c0,0 -300,-613 -357,-718 -57,-106 -1640,-416 -1640,-416z" style="fill: rgb(253, 229, 169);" transform="matrix(0.12255483120679854, 0, 0, 0.12255483120679854, -34.85349409102855, -18.196776517535454)"/><path class="fil3" d="M8117 2967c0,0 234,218 406,333 173,115 397,183 397,183 0,0 17,173 47,258 31,84 -213,210 -213,210 0,0 -681,-214 -684,-275 -4,-61 47,-709 47,-709z" style="fill: rgb(253, 229, 169);" transform="matrix(0.12255483120679854, 0, 0, 0.12255483120679854, -34.85349409102855, -18.196776517535454)"/><path class="fil3" d="M3385 4923c0,0 -149,154 -396,313 -247,158 -501,165 -501,165l-5 23c0,0 336,-66 633,-154 298,-88 351,-130 351,-130l9 15c0,0 -253,120 -350,155 -97,34 -164,41 -164,41 0,0 114,-91 239,72 126,163 148,194 369,44 220,-150 306,-262 306,-262l-491 -282z" style="fill: rgb(253, 229, 169);" transform="matrix(0.12255483120679854, 0, 0, 0.12255483120679854, -34.85349409102855, -18.196776517535454)"/><path class="fil3" d="M3616 3265c0,0 -135,196 -396,370 -261,175 -353,203 -353,203 0,0 59,228 59,247 0,20 14,53 14,53 0,0 297,-231 359,-261 61,-31 89,-67 89,-67 0,0 -238,303 -529,396 -291,94 -334,51 -334,51l-3 38c0,0 266,-21 574,-51 309,-30 451,-109 451,-109l203 -440c0,0 10,-138 -134,-430z" style="fill: rgb(253, 229, 169);" transform="matrix(0.12255483120679854, 0, 0, 0.12255483120679854, -34.85349409102855, -18.196776517535454)"/><path class="fil4" d="M7350 6152c0,0 369,188 809,396 440,208 243,-193 111,248 -131,440 -243,486 -401,447 -158,-40 -513,-296 -513,-296 0,0 193,72 248,164 55,92 114,171 114,171 0,0 -372,-216 -578,-388 -207,-171 210,-742 210,-742z" style="fill: rgb(87, 164, 220);" transform="matrix(0.12255483120679854, 0, 0, 0.12255483120679854, -34.85349409102855, -18.196776517535454)"/><path class="fil5" d="M4345 5791c0,0 -471,274 -594,358 -122,83 -308,151 -308,151 0,0 328,613 426,696 98,83 333,59 333,59l272 -163c0,0 -228,334 -297,408 -68,73 -83,98 -83,98l74 34c0,0 539,-603 646,-735 108,-132 -378,-943 -378,-943l-91 37z" style="fill: rgb(97, 185, 106);" transform="matrix(0.12255483120679854, 0, 0, 0.12255483120679854, -34.85349409102855, -18.196776517535454)"/><path class="fil6" d="M7378 5329c0,0 882,315 1054,342 72,11 129,19 171,25 32,73 112,250 121,276 -14,0 -28,-1 -41,-1 -142,-5 -419,-81 -419,-81l15 83c0,0 318,38 600,14l61 90c80,118 117,343 117,343 0,0 -411,101 -460,107 -48,5 -561,-247 -561,-247 0,0 167,2 367,207 201,206 331,179 331,179l-5 25c0,0 30,19 -504,-186 -534,-206 -804,-358 -804,-358 0,0 -214,-166 -218,-207 -4,-41 175,-611 175,-611z" style="fill: rgb(164, 212, 4);" transform="matrix(0.12255483120679854, 0, 0, 0.12255483120679854, -34.85349409102855, -18.196776517535454)"/><path class="fil7" d="M5724 7264c0,0 -25,163 -36,272 -10,109 -1,161 -1,161l156 30 108 -73c0,0 32,50 43,64 10,14 22,81 22,81l41 -3c0,0 -34,-426 -34,-467 0,-40 -1,-61 -1,-61 0,0 63,252 75,314 12,61 21,142 21,142 0,0 203,-14 244,-16 40,-2 79,-9 79,-9 0,0 -4,-329 -9,-372 -5,-42 -333,-279 -333,-279l-375 216z" style="fill: rgb(29, 107, 117);" transform="matrix(0.12255483120679854, 0, 0, 0.12255483120679854, -34.85349409102855, -18.196776517535454)"/><path class="fil6" d="M6902 6665c0,0 188,353 236,369 48,16 89,72 89,72 0,0 -35,118 -104,200 -70,82 -70,82 -70,82l-92 -110c0,0 23,93 29,114 6,20 69,116 69,116l-10 15c0,0 -139,-227 -265,-354 -127,-126 -172,-294 -172,-294 0,0 200,449 266,539 65,90 126,212 126,212 0,0 -138,25 -212,58 -73,32 -245,-400 -298,-515 -53,-114 408,-504 408,-504z" style="fill: rgb(164, 212, 4);" transform="matrix(0.12255483120679854, 0, 0, 0.12255483120679854, -34.85349409102855, -18.196776517535454)"/><path class="fil6" d="M5142 6598c0,0 -139,200 -251,260 -112,60 -124,92 -124,92 0,0 108,265 148,321 40,57 173,93 173,93l180 -173c0,0 -20,84 -76,173 -56,88 -112,168 -112,168l34 14c0,0 106,-193 247,-363 141,-169 141,-169 141,-169 0,0 -127,259 -149,304 -23,45 -31,64 -31,64 0,0 87,64 126,84 39,19 83,38 94,30 10,-7 69,-74 69,-74 0,0 -10,66 -15,100 -5,34 -19,60 -19,60l63 51c0,0 47,-353 81,-479 35,-127 20,-503 20,-503l-599 -53z" style="fill: rgb(164, 212, 4);" transform="matrix(0.12255483120679854, 0, 0, 0.12255483120679854, -34.85349409102855, -18.196776517535454)"/><path class="fil1" d="M4637 5532c0,0 -345,183 -600,316 -255,132 -461,187 -461,187 0,0 229,92 305,143 77,51 364,114 364,114 0,0 181,-105 229,-143 48,-38 141,-163 141,-163 0,0 -83,262 -169,396 -86,134 -281,221 -407,269 -127,49 -242,62 -242,62l7 44c0,0 269,-98 473,-174 205,-76 279,-115 279,-115 0,0 -16,161 -26,271 -9,110 -142,292 -142,292 0,0 243,-122 441,-179 197,-56 312,-236 312,-236 0,0 -198,-812 -257,-877 -59,-64 -247,-207 -247,-207z" style="fill: rgb(255, 240, 0);" transform="matrix(0.12255483120679854, 0, 0, 0.12255483120679854, -34.85349409102855, -18.196776517535454)"/><path class="fil8" d="M4443 4761c0,0 -136,38 -431,29 -294,-10 -535,-38 -535,-38 0,0 -333,225 -429,281 -97,56 -189,124 -189,124l25 29c0,0 428,-186 542,-215 115,-28 354,-57 354,-57 0,0 -256,84 -356,121 -100,36 84,12 333,347 249,334 380,281 380,281l212 -237c0,0 16,98 -114,245 -131,147 -294,209 -294,209l65 40c0,0 969,-357 1121,-494 153,-138 -684,-665 -684,-665z" style="fill: rgb(173, 66, 155);" transform="matrix(0.12255483120679854, 0, 0, 0.12255483120679854, -34.85349409102855, -18.196776517535454)"/><path class="fil1" d="M8535 3825c0,0 141,29 204,44 63,14 172,220 218,256 46,37 110,138 110,138 0,0 -190,43 -269,58 -80,16 -239,-6 -239,-6 0,0 239,67 312,67 74,0 153,-12 153,-12l9 22c0,0 -146,13 -422,47 -275,34 -352,34 -352,34 0,0 315,346 364,422 46,72 -134,384 -222,533 -10,-118 -24,-270 -35,-348 -19,-137 -66,-348 -66,-348 0,0 11,818 17,875l0 0c-20,63 -24,106 -24,106l-276 -19c0,0 -626,-204 -641,-300 -15,-96 225,-1349 225,-1349l934 -220z" style="fill: rgb(255, 240, 0);" transform="matrix(0.12255483120679854, 0, 0, 0.12255483120679854, -34.85349409102855, -18.196776517535454)"/><path class="fil7" d="M8066 2941l122 197c0,0 190,134 265,162 74,28 169,46 169,46l-23 93c0,0 -313,-52 -375,-57 -61,-5 -102,-20 -102,-20 0,0 115,79 156,82 41,3 224,26 224,26 0,0 -29,107 -31,149 -3,41 -26,131 -26,131 0,0 -241,77 -303,74 -62,-3 -269,-126 -318,-218 -49,-93 -272,-488 -272,-540 0,-51 77,-136 118,-136 41,0 396,11 396,11z" style="fill: rgb(29, 107, 117);" transform="matrix(0.12255483120679854, 0, 0, 0.12255483120679854, -34.85349409102855, -18.196776517535454)"/><path class="fil2" d="M4206 4449c0,0 -209,31 -541,48 -332,17 -573,89 -573,89 0,0 133,221 159,260 26,39 306,-85 399,-77 94,7 409,14 409,14 0,0 142,-113 147,-334z" style="fill: rgb(151, 209, 227);" transform="matrix(0.12255483120679854, 0, 0, 0.12255483120679854, -34.85349409102855, -18.196776517535454)"/><path class="fil4" d="M8423 4339c47,26 159,221 283,293 123,72 205,251 205,251l-103 175c0,0 -330,-267 -399,-393 -68,-126 -227,-172 -227,-172l241 -154z" style="fill: rgb(87, 164, 220);" transform="matrix(0.12255483120679854, 0, 0, 0.12255483120679854, -34.85349409102855, -18.196776517535454)"/><path class="fil7" d="M3794 3657c0,0 -258,226 -365,295 -107,70 -210,149 -210,149 0,0 167,220 210,252 43,32 385,-21 385,-21l-240 160 -241 22 21 80c0,0 393,-20 546,-59 152,-39 436,-122 464,-137 28,-16 205,-269 205,-269l-775 -472z" style="fill: rgb(29, 107, 117);" transform="matrix(0.12255483120679854, 0, 0, 0.12255483120679854, -34.85349409102855, -18.196776517535454)"/><path class="fil9" d="M6470 1687c0,0 224,-559 383,-691 159,-131 318,-230 318,-230 0,0 186,170 247,208 60,39 147,126 147,126 0,0 -242,222 -474,317 -232,94 496,-196 611,-256 115,-61 302,-230 302,-230l208 213c0,0 -690,356 -975,466 -285,109 -725,282 -725,282l-42 -205z" style="fill: rgb(93, 185, 236);" transform="matrix(0.12255483120679854, 0, 0, 0.12255483120679854, -34.85349409102855, -18.196776517535454)"/><path class="fil10" d="M4791 5410l-24 82c0,0 38,153 73,208 36,55 80,109 80,109l30 1c0,0 -27,44 -47,68 -21,24 -59,29 -59,29 0,0 -17,233 31,297 48,65 104,115 104,115 0,0 80,215 98,338 18,123 188,243 188,243 0,0 172,-3 269,-39 97,-37 553,-381 553,-381l-1232 -1088 -64 18z" style="fill: rgb(186, 60, 18);" transform="matrix(0.12255483120679854, 0, 0, 0.12255483120679854, -34.85349409102855, -18.196776517535454)"/><path class="fil10" d="M7522 5397c0,0 67,108 67,171 0,63 -43,170 -43,170l-63 230 -45 3c0,0 82,18 104,19 21,2 284,-261 284,-261 0,0 86,202 103,228 17,26 -112,117 -112,117 0,0 -233,-6 -342,-9 -109,-3 -109,-3 -109,-3 0,0 85,55 150,52 65,-3 253,7 253,7 0,0 -168,151 -222,215 -53,64 -236,11 -236,11 0,0 86,99 103,101 16,3 133,35 133,35 0,0 -319,284 -354,325 -34,41 -242,93 -387,56 -145,-37 -509,-286 -509,-286l1225 -1181z" style="fill: rgb(186, 60, 18);" transform="matrix(0.12255483120679854, 0, 0, 0.12255483120679854, -34.85349409102855, -18.196776517535454)"/><path class="fil11" d="M7965 2208c0,0 228,-13 281,-22 53,-8 166,-62 166,-62 0,0 22,281 42,376 19,96 -39,200 -39,200l-37 53c0,0 160,22 222,14 61,-9 288,-12 288,-12 0,0 -92,243 -75,333 17,89 -189,138 -189,138 0,0 -209,-232 -435,-314 -226,-81 -676,-141 -676,-141 0,0 -191,-143 -252,-172 -60,-29 -84,-483 -84,-483 0,0 486,144 788,92z" style="fill: rgb(247, 147, 62);" transform="matrix(0.12255483120679854, 0, 0, 0.12255483120679854, -34.85349409102855, -18.196776517535454)"/><path class="fil12" d="M4603 3152c0,0 -370,28 -614,238 -245,209 -480,297 -480,297 0,0 191,236 294,309 103,74 255,98 255,98 0,0 -152,93 -255,83 -103,-10 -147,-34 -147,-34l-20 89c0,0 615,-50 681,-62 66,-12 181,-61 181,-61 0,0 -14,58 -181,147 -166,88 -279,125 -279,125 0,0 3,153 60,222 56,69 147,76 147,76 0,0 -7,69 -51,81 -45,12 -182,30 -182,30 0,0 480,26 564,7 83,-20 232,-1336 27,-1645z" style="fill: rgb(47, 17, 45);" transform="matrix(0.12255483120679854, 0, 0, 0.12255483120679854, -34.85349409102855, -18.196776517535454)"/><path class="fil12" d="M7798 3844c0,0 465,-80 587,-141 122,-61 132,-71 132,-71 0,0 109,225 141,302 32,77 -131,266 -131,266 0,0 -280,80 -334,93 -55,13 -94,21 -94,21 0,0 116,50 160,53 43,3 272,-15 272,-15l10 44c0,0 -376,9 -464,18 -88,10 -178,4 -326,-66 -147,-71 47,-504 47,-504zm-66 576c0,0 123,49 213,66 91,16 159,21 159,21 0,0 -168,305 -193,366 -24,62 -122,45 -122,45 0,0 9,99 20,107 11,8 165,23 165,23 0,0 -200,106 -260,102 -60,-3 -116,-39 -116,-39l134 -691z" style="fill: rgb(47, 17, 45);" transform="matrix(0.12255483120679854, 0, 0, 0.12255483120679854, -34.85349409102855, -18.196776517535454)"/><path class="fil12" d="M4709 3202c0,0 -108,69 -509,128 -170,25 -344,114 -488,209 -31,-138 -68,-412 -87,-561 192,-61 477,-148 477,-148 0,0 -231,-39 -324,-24 -93,14 -323,58 -323,58l-34 -112c0,0 1186,-406 1489,-412 302,-5 431,59 431,59 0,0 19,191 5,240 -15,49 -637,563 -637,563z" style="fill: rgb(47, 17, 45);" transform="matrix(0.12255483120679854, 0, 0, 0.12255483120679854, -34.85349409102855, -18.196776517535454)"/><path class="fil12" d="M7334 2692c0,0 59,-75 406,-8 347,67 544,-26 544,-26 0,0 -10,206 3,283 13,77 -27,108 -27,108 0,0 -286,7 -335,-3 -49,-10 -170,-39 -170,-39 0,0 193,123 309,155 115,33 188,35 188,35l-77 82c0,0 -328,-80 -361,-93 -33,-12 -73,-73 -73,-73 0,0 120,265 169,368 49,102 505,102 505,102 0,0 -463,284 -548,309 -85,25 -533,-1200 -533,-1200z" style="fill: rgb(47, 17, 45);" transform="matrix(0.12255483120679854, 0, 0, 0.12255483120679854, -34.85349409102855, -18.196776517535454)"/><path class="fil5" d="M5293 2042c0,0 -680,-355 -859,-566 -180,-210 -329,-350 -329,-350 0,0 -666,52 -947,241 -280,188 -346,329 -346,329l276 201 114 31c0,0 -214,57 -250,57 -35,0 -166,0 -166,0l1 26c0,0 490,0 845,-32 355,-33 534,-70 534,-70 0,0 212,199 265,237 54,38 95,58 95,58 0,0 -528,-118 -702,-118 -175,0 -481,-61 -481,-61l-95 288c0,0 761,-57 1019,-83 259,-26 593,169 593,169 0,0 252,36 304,18 52,-19 129,-375 129,-375z" style="fill: rgb(97, 185, 106);" transform="matrix(0.12255483120679854, 0, 0, 0.12255483120679854, -34.85349409102855, -18.196776517535454)"/><path class="fil10" d="M5750 2111c0,0 -130,-651 -164,-836 -34,-186 -47,-282 -47,-282 0,0 129,-63 202,-68 73,-4 171,-17 171,-17 0,0 83,138 100,183 16,45 32,88 32,88 0,0 21,-218 29,-272 8,-53 2,-197 2,-197l75 -17c0,0 23,300 23,431 0,130 0,245 0,245 0,0 118,-294 171,-445 53,-151 98,-359 98,-359l608 49c0,0 -220,330 -326,514 -106,184 -159,261 -159,261 0,0 -103,411 -40,502 62,91 -256,188 -256,188l-519 32z" style="fill: rgb(186, 60, 18);" transform="matrix(0.12255483120679854, 0, 0, 0.12255483120679854, -34.85349409102855, -18.196776517535454)"/><path class="fil8" d="M5852 2405c0,0 -73,-420 -185,-803 -111,-383 -133,-660 -133,-660l-69 -3c0,0 76,385 110,492 34,108 34,113 34,113 0,0 -134,-289 -161,-362 -27,-74 -57,-152 -57,-152 0,0 -484,176 -548,210 -64,35 -176,128 -176,128 0,0 142,382 200,514 59,132 255,421 255,421 0,0 -73,-24 -206,-137 -132,-113 -259,-284 -259,-284l-235 142c0,0 348,384 593,444 244,60 466,118 466,118l371 -181z" style="fill: rgb(173, 66, 155);" transform="matrix(0.12255483120679854, 0, 0, 0.12255483120679854, -34.85349409102855, -18.196776517535454)"/><path class="fil12" d="M5173 2507c26,7 51,13 75,19 96,17 251,10 351,3l204 -100c0,0 -94,-193 -137,-243 -44,-51 -136,-172 -136,-172 0,0 -103,128 -193,197 -89,69 -66,140 -66,140l20 78c0,0 -99,-21 -131,-50 -32,-29 -168,36 -168,36 0,0 76,58 181,92z" style="fill: rgb(47, 17, 45);" transform="matrix(0.12255483120679854, 0, 0, 0.12255483120679854, -34.85349409102855, -18.196776517535454)"/><path class="fil12" d="M6530 1927c-2,-13 -4,-25 -5,-36 -59,7 -133,15 -172,19 7,43 13,81 18,102 19,74 43,129 43,129 0,0 -106,-208 -148,-326 -62,11 -113,20 -120,20 -20,0 -50,104 -50,104l-134 -79c0,0 -192,137 -244,183 -52,47 43,277 90,398 47,121 578,275 618,299 39,25 348,-397 348,-397l-244 -416z" style="fill: rgb(47, 17, 45);" transform="matrix(0.12255483120679854, 0, 0, 0.12255483120679854, -34.85349409102855, -18.196776517535454)"/><path class="fil4" d="M7891 3758c0,0 55,99 84,110 30,11 24,83 24,83l-128 104c0,0 51,38 80,48 29,11 -58,206 -77,286 -19,80 -356,-64 -356,-64l4 -617 369 50z" style="fill: rgb(87, 164, 220);" transform="matrix(0.12255483120679854, 0, 0, 0.12255483120679854, -34.85349409102855, -18.196776517535454)"/><path class="fil12" d="M6850 1607c0,0 371,-129 446,-217 76,-89 114,-135 114,-135l231 223c0,0 -184,132 -266,185 -81,53 -285,108 -285,108 0,0 268,-83 347,-115 79,-32 145,-66 145,-66l15 36c0,0 -424,199 -569,240 -146,40 116,-156 269,305 154,460 549,81 549,81 0,0 107,67 141,130 34,63 55,120 55,120l-121 56c0,0 155,-14 228,-35 74,-21 98,-34 98,-34l8 43c0,0 -316,126 -610,74 -294,-51 -448,131 -448,131 0,0 -481,-326 -554,-392 -73,-67 -116,-354 -128,-517 -11,-164 335,-221 335,-221z" style="fill: rgb(47, 17, 45);" transform="matrix(0.12255483120679854, 0, 0, 0.12255483120679854, -34.85349409102855, -18.196776517535454)"/><path class="fil8" d="M6460 1951c0,0 159,-57 233,-81 73,-25 77,-27 77,-27 0,0 -89,74 -173,133 -84,59 -106,51 -106,51l-31 -76z" style="fill: rgb(173, 66, 155);" transform="matrix(0.12255483120679854, 0, 0, 0.12255483120679854, -34.85349409102855, -18.196776517535454)"/><path class="fil4" d="M7596 5405c0,0 -113,350 -173,489 -59,139 -66,215 -66,215 0,0 -235,-1056 -239,-1115 -4,-59 45,-138 45,-138l433 549z" style="fill: rgb(87, 164, 220);" transform="matrix(0.12255483120679854, 0, 0, 0.12255483120679854, -34.85349409102855, -18.196776517535454)"/><path class="fil4" d="M4665 5135c0,0 107,246 161,345 55,99 165,279 165,279 0,0 109,-208 131,-284 22,-77 -33,-288 -55,-302 -21,-13 -342,-142 -342,-142l-60 104z" style="fill: rgb(87, 164, 220);" transform="matrix(0.12255483120679854, 0, 0, 0.12255483120679854, -34.85349409102855, -18.196776517535454)"/><path class="fil13" d="M5706 6780c0,0 -262,127 -349,151 -87,24 -108,79 -108,79l63 179c0,0 58,52 129,73 71,21 176,-52 176,-52 0,0 -89,121 -115,134 -27,13 -88,30 -88,30l59 34c0,0 192,-187 229,-251 37,-65 37,-65 37,-65 0,0 -141,300 -148,307 -8,7 132,38 175,45 43,8 186,21 186,21l43 -72 34 77 36 -9c0,0 -13,-193 -17,-265 -5,-73 -5,-82 -5,-82 0,0 68,186 78,251 10,65 13,155 13,155 0,0 269,17 330,4 60,-14 133,-75 133,-75 0,0 -52,-178 -58,-197 -6,-20 -6,-34 -6,-34 0,0 56,98 70,132 14,33 18,58 18,58l55 -28c0,0 -86,-188 -102,-241 -15,-54 -31,-77 -31,-77 0,0 132,186 161,238 29,52 40,91 40,91 0,0 106,-115 128,-154 22,-39 39,-166 39,-166 0,0 -125,-248 -136,-266 -11,-18 -558,-86 -730,-98 -171,-12 -246,-18 -339,73z" style="fill: rgb(254, 254, 254);" transform="matrix(0.12255483120679854, 0, 0, 0.12255483120679854, -34.85349409102855, -18.196776517535454)"/><path class="fil3" d="M5063 5240c0,0 -87,325 -106,353 -19,29 92,248 40,429 -52,180 51,282 111,475 61,194 78,291 398,226 320,-65 582,-264 582,-264l70 -18c0,0 263,249 584,289 321,41 406,-154 509,-333 102,-179 130,-280 83,-509 -47,-228 -32,-291 -32,-291 0,0 -285,-324 -478,-350 -193,-26 -1761,-7 -1761,-7z" style="fill: rgb(253, 229, 169);" transform="matrix(0.12255483120679854, 0, 0, 0.12255483120679854, -34.85349409102855, -18.196776517535454)"/><path class="fil14" d="M5062 5243c-9,34 -87,323 -105,350 -11,17 21,97 40,196 103,-9 251,-25 305,-50 85,-40 343,-137 343,-137l-191 -366c-190,2 -335,3 -378,4l-14 3z" style="fill: rgb(244, 175, 114);" transform="matrix(0.12255483120679854, 0, 0, 0.12255483120679854, -34.85349409102855, -18.196776517535454)"/><path class="fil15" d="M6468 5780c0,0 23,31 97,123 75,93 183,144 183,144 0,0 -51,98 -49,149 2,51 -95,100 -111,100 -15,0 -51,162 -56,211 -5,49 -397,-30 -397,-30 0,0 17,-272 12,-364 -5,-92 321,-333 321,-333z" style="fill: rgb(196, 216, 74);" transform="matrix(0.12255483120679854, 0, 0, 0.12255483120679854, -34.85349409102855, -18.196776517535454)"/><path class="fil15" d="M7329 5863c-41,-208 -27,-266 -27,-266 0,0 -160,-182 -321,-284 -91,-12 -162,-21 -162,-21l-220 292c0,0 269,157 319,181 51,23 242,146 242,146 0,0 89,-23 169,-48z" style="fill: rgb(196, 216, 74);" transform="matrix(0.12255483120679854, 0, 0, 0.12255483120679854, -34.85349409102855, -18.196776517535454)"/><path class="fil14" d="M5392 6855c0,0 17,66 25,71 9,5 156,-67 235,-114 80,-47 108,-64 108,-64 0,0 -7,46 -17,65 -10,20 -50,75 -50,75 0,0 137,31 184,35 46,5 106,5 106,5l47 -46c0,0 19,35 45,77 26,42 280,-9 288,-9 7,0 -2,-160 -2,-160 0,0 164,57 204,72 40,15 47,13 47,13l109 -30c0,0 97,39 116,44 18,5 30,35 30,35 0,0 46,-67 55,-84 9,-17 -244,-84 -360,-143 -115,-59 -237,-122 -237,-122l-434 45c0,0 -183,119 -499,235z" style="fill: rgb(244, 175, 114);" transform="matrix(0.12255483120679854, 0, 0, 0.12255483120679854, -34.85349409102855, -18.196776517535454)"/><path class="fil15" d="M5748 5765c0,0 -215,228 -309,260 -94,33 -209,48 -209,48 0,0 31,123 51,180 20,57 129,112 129,112l157 -53c0,0 -79,104 -130,120 -51,16 -134,24 -134,24l35 105c0,0 315,-144 425,-305 110,-161 -53,150 -53,150 0,0 35,13 117,53 83,40 298,39 298,39 0,0 10,-353 4,-448 -6,-96 -381,-285 -381,-285z" style="fill: rgb(196, 216, 74);" transform="matrix(0.12255483120679854, 0, 0, 0.12255483120679854, -34.85349409102855, -18.196776517535454)"/><path class="fil13" d="M6070 6269l-61 -119c0,0 -53,12 -64,12 -10,0 25,-86 25,-86 0,0 -116,-176 -124,-183 -8,-6 -195,19 -361,-141 -166,-159 -134,-310 -134,-310l-288 10c0,0 53,92 117,182 64,90 263,184 263,184l-15 23c0,0 -246,-66 -306,-97 -61,-32 -145,-149 -145,-149 0,0 4,123 7,134 3,12 36,136 27,187 -9,51 -6,71 -6,71l124 44c0,0 -93,-14 -119,-8 -26,6 -202,26 -202,26l8 32c0,0 132,-39 167,-46 34,-6 40,103 51,139 11,35 193,58 435,75 243,17 294,7 294,7l-181 98c0,0 -215,-35 -370,-57 -156,-21 -156,-21 -156,-21 0,0 59,311 240,325 182,15 582,44 774,-332z" style="fill: rgb(254, 254, 254);" transform="matrix(0.12255483120679854, 0, 0, 0.12255483120679854, -34.85349409102855, -18.196776517535454)"/><path class="fil3" d="M5427 5687c-99,-133 -76,-245 -76,-245l-288 10c0,0 53,92 117,182 26,37 74,74 122,105 28,-13 75,-32 125,-52zm-244 81c-26,-9 -48,-18 -61,-24 -61,-32 -145,-149 -145,-149 0,0 4,123 7,134 1,5 8,30 14,60 56,-5 125,-12 185,-21z" style="fill: rgb(253, 229, 169);" transform="matrix(0.12255483120679854, 0, 0, 0.12255483120679854, -34.85349409102855, -18.196776517535454)"/><path class="fil16" d="M6466 6648l-141 -73 -434 45c0,0 -38,25 -109,63 85,33 191,53 306,53 150,0 285,-34 378,-88z" style="fill: rgb(202, 43, 65);" transform="matrix(0.12255483120679854, 0, 0, 0.12255483120679854, -34.85349409102855, -18.196776517535454)"/><path class="fil3" d="M5897 3319c0,0 -166,429 -291,625 -124,195 -155,347 -155,347 0,0 -111,574 -52,816 59,242 181,291 437,366 256,76 990,-247 990,-247 0,0 -55,-817 -153,-1053 -98,-235 -573,-813 -573,-813l-203 -41z" style="fill: rgb(253, 229, 169);" transform="matrix(0.12255483120679854, 0, 0, 0.12255483120679854, -34.85349409102855, -18.196776517535454)"/><path class="fil13" d="M6176 4206l150 19c0,0 13,215 13,270 0,55 -68,89 -68,89l123 153 -54 107c0,0 -191,-331 -231,-398 -40,-68 67,-240 67,-240zm-2 -40c0,0 97,16 126,17 29,2 44,-70 29,-78 -15,-8 -147,46 -147,46l-8 15z" style="fill: rgb(254, 254, 254);" transform="matrix(0.12255483120679854, 0, 0, 0.12255483120679854, -34.85349409102855, -18.196776517535454)"/><path class="fil15" d="M5964 3559c0,0 -71,176 -75,201 -5,25 67,303 80,332 12,30 46,286 46,286l108 1c0,0 -20,-547 -21,-619 -1,-73 -138,-201 -138,-201z" style="fill: rgb(196, 216, 74);" transform="matrix(0.12255483120679854, 0, 0, 0.12255483120679854, -34.85349409102855, -18.196776517535454)"/><path class="fil15" d="M6625 2396l-177 228 -101 76c0,0 -84,349 -105,462 -22,114 -104,760 -104,760 0,0 153,-49 172,-49 18,0 214,239 283,288 70,49 173,528 172,571 -1,43 46,-12 46,-12 0,0 -74,-437 -71,-521 4,-83 44,-277 75,-363 30,-85 90,-328 190,-379 99,-51 63,-973 63,-973 0,0 -259,-125 -294,-141 -35,-17 -149,53 -149,53z" style="fill: rgb(196, 216, 74);" transform="matrix(0.12255483120679854, 0, 0, 0.12255483120679854, -34.85349409102855, -18.196776517535454)"/><path class="fil4" d="M6161 4656l-300 -23c0,0 -197,289 -237,315 -39,27 -34,-102 -47,-87 -13,16 -146,7 -146,7 0,0 -80,381 4,543 84,163 192,249 192,249 0,0 321,-109 377,-135 55,-25 157,-869 157,-869z" style="fill: rgb(87, 164, 220);" transform="matrix(0.12255483120679854, 0, 0, 0.12255483120679854, -34.85349409102855, -18.196776517535454)"/><path class="fil13" d="M5611 4951c-25,-7 -22,-103 -34,-90 -13,16 -146,7 -146,7 0,0 -80,381 4,543 29,56 60,102 89,139 25,-2 49,-8 68,-21 63,-45 125,-129 125,-129 0,0 -24,-88 -46,-171 -22,-82 -83,-130 -83,-130l39 -56c-5,-27 -10,-59 -16,-92z" style="fill: rgb(254, 254, 254);" transform="matrix(0.12255483120679854, 0, 0, 0.12255483120679854, -34.85349409102855, -18.196776517535454)"/><path class="fil8" d="M7253 5074c0,0 173,246 247,304 75,59 73,131 73,131 0,0 137,-610 161,-724 24,-115 55,-198 55,-198l-35 -21c0,0 60,-4 72,-4 12,0 45,-173 53,-188 8,-14 -439,-220 -492,-220 -54,-1 -416,278 -416,278 0,0 251,544 282,642z" style="fill: rgb(173, 66, 155);" transform="matrix(0.12255483120679854, 0, 0, 0.12255483120679854, -34.85349409102855, -18.196776517535454)"/><path class="fil17" d="M6904 3557c0,0 -82,-245 -134,-450 -52,-206 -85,-301 -85,-301 0,0 227,-214 306,-316 78,-102 -11,-1 270,109 282,110 285,256 320,364 34,108 59,137 59,137l-59 61c0,0 71,8 91,0 21,-7 26,138 144,332 118,194 132,269 132,269 0,0 -347,23 -425,20 -77,-2 -619,-225 -619,-225z" style="fill: rgb(245, 99, 118);" transform="matrix(0.12255483120679854, 0, 0, 0.12255483120679854, -34.85349409102855, -18.196776517535454)"/><path class="fil13" d="M6766 3089c-50,-194 -81,-283 -81,-283 0,0 188,-177 281,-286 63,11 145,26 198,34 26,15 58,30 97,45 0,0 -16,45 -40,60 -24,16 98,-31 98,-31l15 26c0,0 -213,121 -250,168 -37,48 -129,392 -129,392 0,0 -120,-71 -189,-125z" style="fill: rgb(254, 254, 254);" transform="matrix(0.12255483120679854, 0, 0, 0.12255483120679854, -34.85349409102855, -18.196776517535454)"/><path class="fil5" d="M6816 5318c18,12 150,136 180,152 31,16 85,-30 85,-30 0,0 96,129 110,139 14,10 114,50 114,50 0,0 -44,-447 -86,-618 -43,-172 -175,-500 -175,-500l-164 -291 -116 205c0,0 109,486 52,893z" style="fill: rgb(97, 185, 106);" transform="matrix(0.12255483120679854, 0, 0, 0.12255483120679854, -34.85349409102855, -18.196776517535454)"/><path class="fil4" d="M6895 3754c0,0 -118,-117 -163,-164 -45,-48 -74,-158 -74,-158l-55 -8c0,0 -29,-239 -29,-274 0,-34 126,-60 126,-60 0,0 149,319 160,339 11,20 14,59 14,59 0,0 100,38 115,40 16,3 19,-146 19,-146 0,0 186,-39 264,-61 79,-22 147,-7 147,-7 0,0 63,165 80,198 17,33 44,73 44,73l-69 29 -579 140z" style="fill: rgb(87, 164, 220);" transform="matrix(0.12255483120679854, 0, 0, 0.12255483120679854, -34.85349409102855, -18.196776517535454)"/><path class="fil15" d="M7409 3563l70 45c0,0 -30,40 -79,80 -48,40 -211,1 -311,-3 -100,-4 -167,-11 -167,-11 0,0 -3,-78 26,-103 29,-26 250,-63 461,-8z" style="fill: rgb(196, 216, 74);" transform="matrix(0.12255483120679854, 0, 0, 0.12255483120679854, -34.85349409102855, -18.196776517535454)"/><path class="fil7" d="M6783 5509c0,0 28,-13 39,-35 12,-23 58,15 58,15 0,0 -89,207 -128,235 -40,28 -73,20 -73,20 0,0 8,44 -3,44 -12,0 -95,30 -164,51 -69,21 -109,38 -109,38 0,0 -122,227 -175,305 -54,79 -78,170 -78,170l11 124 -74 4c0,0 14,-233 41,-293 28,-60 270,-367 270,-367l249 -143c0,0 14,-9 136,-168z" style="fill: rgb(29, 107, 117);" transform="matrix(0.12255483120679854, 0, 0, 0.12255483120679854, -34.85349409102855, -18.196776517535454)"/><path class="fil8" d="M5440 5460l-49 17c0,0 -4,122 134,210 137,89 290,165 290,165l69 -8c0,0 38,125 82,193 44,69 144,218 144,218 0,0 37,-17 37,-39 0,-22 -188,-553 -188,-553 0,0 -333,37 -359,23 -26,-15 -126,-193 -160,-226z" style="fill: rgb(173, 66, 155);" transform="matrix(0.12255483120679854, 0, 0, 0.12255483120679854, -34.85349409102855, -18.196776517535454)"/><path class="fil4" d="M5931 3377c0,0 -143,417 -169,521 -27,105 -210,262 -210,262 0,0 3,255 6,304 3,49 24,143 24,143l-133 111c0,0 2,-588 4,-676 2,-88 -101,-400 -64,-534 37,-133 475,-247 475,-247l67 116z" style="fill: rgb(87, 164, 220);" transform="matrix(0.12255483120679854, 0, 0, 0.12255483120679854, -34.85349409102855, -18.196776517535454)"/><path class="fil17" d="M5712 2374c0,0 243,51 279,68 36,16 56,76 56,76l76 -135c0,0 259,16 292,16 33,0 -110,821 -153,980 -42,159 -61,355 -61,355l-49 80c0,0 43,202 43,220 0,19 -40,345 -40,345l-64 0c0,0 -25,-527 -33,-611 -8,-84 -310,-586 -310,-586 0,0 -81,-51 -189,-51 -109,0 -118,-593 -118,-593 0,0 161,-22 271,-164z" style="fill: rgb(245, 99, 118);" transform="matrix(0.12255483120679854, 0, 0, 0.12255483120679854, -34.85349409102855, -18.196776517535454)"/><path class="fil8" d="M6365 2845c-37,220 -82,456 -103,534 -42,159 -61,355 -61,355l-49 80c0,0 10,48 21,100l-69 16 -5 -485c0,0 96,-293 96,-321 0,-28 -72,-240 -72,-240 0,0 151,-31 242,-39z" style="fill: rgb(173, 66, 155);" transform="matrix(0.12255483120679854, 0, 0, 0.12255483120679854, -34.85349409102855, -18.196776517535454)"/><path class="fil14" d="M5712 2374c0,0 35,8 80,18 19,63 50,158 76,192 38,53 -5,80 -5,80l111 41c0,0 24,142 20,196 -4,53 -324,204 -324,204 0,0 -103,-87 -201,-191 -25,-169 -28,-376 -28,-376 0,0 161,-22 271,-164z" style="fill: rgb(244, 175, 114);" transform="matrix(0.12255483120679854, 0, 0, 0.12255483120679854, -34.85349409102855, -18.196776517535454)"/><path class="fil9" d="M5464 2527l49 170 3 83 -46 37c0,0 68,76 117,143 49,68 125,101 125,101 0,0 -12,108 -16,163 -5,54 -872,325 -889,471 -17,147 -76,271 -76,271l-312 70c0,0 -22,-39 11,-104 32,-65 178,-577 172,-711 -6,-135 42,-258 42,-258 0,0 105,3 125,3 19,0 -118,-69 -118,-69 0,0 82,-318 385,-338 303,-20 316,27 428,-32z" style="fill: rgb(93, 185, 236);" transform="matrix(0.12255483120679854, 0, 0, 0.12255483120679854, -34.85349409102855, -18.196776517535454)"/><path class="fil13" d="M5575 2945c4,5 8,10 12,15 49,68 125,101 125,101 0,0 -7,66 -13,120l-108 -8c0,0 -31,-58 -110,-69 -78,-11 -422,-79 -422,-79 0,0 106,-19 116,-19 10,0 119,47 119,47 0,0 25,-61 82,-73 34,-6 131,-23 199,-35z" style="fill: rgb(254, 254, 254);" transform="matrix(0.12255483120679854, 0, 0, 0.12255483120679854, -34.85349409102855, -18.196776517535454)"/><path class="fil13" d="M5464 2527l49 170 2 38c-73,3 -169,9 -215,23 -78,24 -125,39 -125,39l-61 -15c0,0 -32,57 -64,69 -31,12 -183,-208 -183,-208 0,0 46,-45 152,-82 6,-1 11,-1 17,-2 303,-20 316,27 428,-32zm-543 262c0,0 60,63 69,73 9,11 -2,18 -2,18 0,0 -111,-18 -118,-19 -7,0 51,-72 51,-72z" style="fill: rgb(254, 254, 254);" transform="matrix(0.12255483120679854, 0, 0, 0.12255483120679854, -34.85349409102855, -18.196776517535454)"/><path class="fil8" d="M6936 3731l-73 -129c0,0 163,-119 335,-94 173,24 229,66 229,66l-43 38c0,0 -69,-57 -89,-65 -20,-7 -112,-32 -159,-24 -48,8 -133,37 -152,49 -18,12 -47,110 -47,110l-1 49z" style="fill: rgb(173, 66, 155);" transform="matrix(0.12255483120679854, 0, 0, 0.12255483120679854, -34.85349409102855, -18.196776517535454)"/><path class="fil14" d="M5601 5725c0,0 54,-119 49,-165 -6,-47 136,-97 251,-87 115,10 69,-269 62,-575 -6,-306 79,-478 79,-478l92 0c0,0 288,655 397,687 108,32 145,39 145,39 0,0 78,-100 78,-136 0,-36 25,-376 0,-468 -24,-93 -50,-300 -50,-300l37 -14c0,0 82,538 130,767 47,229 1,414 -96,562 -96,148 -263,169 -263,169 0,0 -586,-1 -911,-1z" style="fill: rgb(244, 175, 114);" transform="matrix(0.12255483120679854, 0, 0, 0.12255483120679854, -34.85349409102855, -18.196776517535454)"/><path class="fil17" d="M5953 5446c46,-77 15,-304 10,-548 -2,-100 6,-185 17,-255 50,2 105,5 140,6 42,80 137,261 161,341 1,2 2,5 3,8 -19,11 -41,21 -63,27 -66,18 -110,34 -110,34 0,0 176,32 202,34 27,2 72,268 72,268 0,0 -271,103 -352,94 -28,-3 -56,-6 -80,-9z" style="fill: rgb(245, 99, 118);" transform="matrix(0.12255483120679854, 0, 0, 0.12255483120679854, -34.85349409102855, -18.196776517535454)"/><path class="fil13" d="M5653 5544c23,-41 146,-79 248,-71 9,1 18,0 25,-3l0 0c58,17 78,55 78,55l-48 99c0,0 -140,-83 -249,-82 -21,0 -39,1 -54,2z" style="fill: rgb(254, 254, 254);" transform="matrix(0.12255483120679854, 0, 0, 0.12255483120679854, -34.85349409102855, -18.196776517535454)"/><path class="fil13" d="M6723 5620l0 0c-3,3 -121,79 -104,30 17,-50 -41,-91 -131,-90 -90,0 -202,63 -224,48 -22,-14 -52,-101 -52,-101 0,0 29,0 187,-65 159,-65 255,-63 288,-25 33,38 36,202 36,203zm-542 -107c0,0 12,37 22,54 9,16 -30,32 -36,32 -5,-1 -67,-38 -74,-49 -8,-10 88,-37 88,-37z" style="fill: rgb(254, 254, 254);" transform="matrix(0.12255483120679854, 0, 0, 0.12255483120679854, -34.85349409102855, -18.196776517535454)"/><path class="fil15" d="M4419 4036c0,0 -2,177 23,230 25,53 85,34 85,34 0,0 -75,57 -107,69 -31,13 -56,29 -56,29l20 78c0,0 67,-25 83,-29 15,-4 24,-9 24,-9 0,0 -55,74 -73,89 -19,16 62,519 130,605 35,45 62,81 80,105 88,-44 137,-129 137,-129l2 44c64,-82 283,-216 283,-216 0,0 20,-767 -73,-863 -92,-95 -229,-288 -229,-288 0,0 -122,178 -329,251z" style="fill: rgb(196, 216, 74);" transform="matrix(0.12255483120679854, 0, 0, 0.12255483120679854, -34.85349409102855, -18.196776517535454)"/><path class="fil14" d="M4738 3876c0,0 -62,-70 -94,-144 -33,-74 -37,-141 -37,-141 0,0 176,-183 196,-232 19,-49 55,-71 55,-71l95 -4 128 -179c0,0 301,29 405,29 105,0 220,16 220,16 0,0 -16,86 -16,177 0,92 -24,220 -24,220 0,0 -86,97 -118,143 -32,46 -41,66 -41,66 0,0 93,161 99,188 6,26 -74,128 -74,128 0,0 -610,-229 -655,-249 -46,-21 -139,53 -139,53z" style="fill: rgb(244, 175, 114);" transform="matrix(0.12255483120679854, 0, 0, 0.12255483120679854, -34.85349409102855, -18.196776517535454)"/><path class="fil13" d="M5317 3625c52,-231 47,-153 161,-320l146 92c0,0 -247,190 -307,228z" style="fill: rgb(254, 254, 254);" transform="matrix(0.12255483120679854, 0, 0, 0.12255483120679854, -34.85349409102855, -18.196776517535454)"/><path class="fil17" d="M5301 3718c0,0 13,-70 43,-177 29,-107 63,-142 63,-142l-105 -32c0,0 -36,107 -40,139 -4,32 39,212 39,212z" style="fill: rgb(245, 99, 118);" transform="matrix(0.12255483120679854, 0, 0, 0.12255483120679854, -34.85349409102855, -18.196776517535454)"/><path class="fil17" d="M4768 3898c0,0 -62,112 -72,138 -10,27 112,155 143,188 30,33 41,621 -6,752 -47,131 -136,214 -136,214 0,0 293,131 376,209 84,79 329,-13 329,-13 0,0 -46,-120 22,-469 68,-349 60,-645 47,-764 -12,-120 -32,-150 -32,-150l-671 -105z" style="fill: rgb(245, 99, 118);" transform="matrix(0.12255483120679854, 0, 0, 0.12255483120679854, -34.85349409102855, -18.196776517535454)"/><path class="fil14" d="M4738 5209c67,31 201,96 284,151 20,-59 49,-145 80,-241 3,-9 5,-17 8,-25 -38,-22 -94,-61 -150,-101 -43,27 -84,54 -115,76 -59,40 -90,97 -107,140z" style="fill: rgb(244, 175, 114);" transform="matrix(0.12255483120679854, 0, 0, 0.12255483120679854, -34.85349409102855, -18.196776517535454)"/><path class="fil13" d="M5380 3727l62 -24c0,0 117,267 135,281 18,14 -106,169 -106,169l-91 -426z" style="fill: rgb(254, 254, 254);" transform="matrix(0.12255483120679854, 0, 0, 0.12255483120679854, -34.85349409102855, -18.196776517535454)"/><path class="fil8" d="M5485 4321l-127 36 41 103c0,0 11,102 6,173 -4,71 -192,421 -192,421 0,0 154,233 168,249 15,15 65,-660 104,-982z" style="fill: rgb(173, 66, 155);" transform="matrix(0.12255483120679854, 0, 0, 0.12255483120679854, -34.85349409102855, -18.196776517535454)"/><path class="fil14" d="M5306 4119l-96 71c0,0 37,62 64,72 26,11 120,32 120,32l-3 -187 -85 12z" style="fill: rgb(244, 175, 114);" transform="matrix(0.12255483120679854, 0, 0, 0.12255483120679854, -34.85349409102855, -18.196776517535454)"/><path class="fil13" d="M6939 3714l-78 -35c0,0 -62,134 -95,196 -33,63 -53,178 -53,178l159 39 67 -378z" style="fill: rgb(254, 254, 254);" transform="matrix(0.12255483120679854, 0, 0, 0.12255483120679854, -34.85349409102855, -18.196776517535454)"/><path class="fil18" d="M6783 4070c0,0 54,-188 60,-205 7,-17 83,-3 83,-3l-58 229 -85 -21z" style="fill: rgb(253, 205, 155);" transform="matrix(0.12255483120679854, 0, 0, 0.12255483120679854, -34.85349409102855, -18.196776517535454)"/><path class="fil17" d="M6861 4324c0,0 197,177 344,393 147,217 229,368 229,368 0,0 253,-557 273,-623l4 -12c-79,-53 -219,-165 -219,-165l64 -12c0,0 5,-19 22,-105 11,-57 43,-228 63,-338 -88,-11 -218,-25 -266,-16 -74,14 -459,209 -459,209l-55 301z" style="fill: rgb(245, 99, 118);" transform="matrix(0.12255483120679854, 0, 0, 0.12255483120679854, -34.85349409102855, -18.196776517535454)"/><path class="fil8" d="M6882 3923c0,0 13,-104 13,-192 0,-88 105,-75 252,-139 148,-63 181,58 326,97 146,38 123,173 123,173 0,0 -41,235 -41,276 0,41 -84,65 -84,65 0,0 -317,-118 -360,-116 -44,2 -121,50 -121,50 0,0 -38,-16 -52,-20 -14,-4 -66,162 -89,249 -23,87 10,182 10,182l-14 8c0,0 -32,-139 -40,-197 -7,-58 25,-276 25,-276 0,0 63,-119 52,-160zm365 226c0,0 102,44 134,55 31,11 -9,83 -9,83 0,0 -142,-84 -145,-93 -3,-9 20,-45 20,-45z" style="fill: rgb(173, 66, 155);" transform="matrix(0.12255483120679854, 0, 0, 0.12255483120679854, -34.85349409102855, -18.196776517535454)"/><path class="fil8" d="M5220 3597c-35,-44 -119,-29 -275,26 -155,55 -255,176 -255,176 0,0 22,63 39,74 17,10 52,0 52,0l-60 114c0,0 89,131 164,227 74,96 88,162 88,162 0,0 148,-190 176,-229 28,-39 23,-94 23,-94l118 86c0,0 54,-6 79,-6 26,0 72,37 72,37l31 -2c0,0 -12,-49 -35,-179 -24,-131 -29,-271 -29,-271 -46,-29 -161,-86 -188,-121zm193 582c0,0 23,7 34,9 10,2 4,45 4,45 0,0 -23,-4 -27,-4 -4,0 -11,-50 -11,-50z" style="fill: rgb(173, 66, 155);" transform="matrix(0.12255483120679854, 0, 0, 0.12255483120679854, -34.85349409102855, -18.196776517535454)"/><path class="fil18" d="M4907 3807l-61 31c0,0 -77,156 110,227 187,71 212,116 212,116l137 -46c0,0 22,-93 -120,-139 -143,-45 -225,-91 -278,-189z" style="fill: rgb(253, 205, 155);" transform="matrix(0.12255483120679854, 0, 0, 0.12255483120679854, -34.85349409102855, -18.196776517535454)"/><path class="fil14" d="M4907 3807l-61 31c0,0 -77,156 110,227 7,3 15,6 21,8 2,-14 4,-30 7,-45 5,-23 17,-69 27,-107 -44,-30 -78,-66 -104,-114z" style="fill: rgb(244, 175, 114);" transform="matrix(0.12255483120679854, 0, 0, 0.12255483120679854, -34.85349409102855, -18.196776517535454)"/><path class="fil17" d="M4907 3807l-61 31c0,0 -31,63 -6,127l16 -25c12,-20 65,-60 89,-78 -14,-16 -27,-35 -38,-55z" style="fill: rgb(245, 99, 118);" transform="matrix(0.12255483120679854, 0, 0, 0.12255483120679854, -34.85349409102855, -18.196776517535454)"/><path class="fil13" d="M5216 4165l89 -30c0,0 12,-52 -40,-97 -30,4 -62,9 -72,10 -20,4 -42,11 -42,11 0,0 40,77 56,97 3,3 6,6 9,9zm-87 -120c0,0 17,-15 24,-21 7,-6 -47,-30 -44,-31 3,0 -24,40 -24,40l44 12z" style="fill: rgb(254, 254, 254);" transform="matrix(0.12255483120679854, 0, 0, 0.12255483120679854, -34.85349409102855, -18.196776517535454)"/><path class="fil12" d="M5888 5782c0,0 39,76 108,219 69,144 149,252 149,252l6 1c0,0 -22,181 -14,242l-12 2c-7,-64 14,-245 15,-245l5 0c0,0 92,-159 167,-286 74,-126 94,-162 94,-162 0,0 -96,-68 -116,-76 -19,-8 -402,53 -402,53z" style="fill: rgb(47, 17, 45);" transform="matrix(0.12255483120679854, 0, 0, 0.12255483120679854, -34.85349409102855, -18.196776517535454)"/><path class="fil16" d="M5882 5684c54,-24 -151,-61 -210,-50 0,0 -33,-143 196,-74 228,70 289,83 476,27 186,-57 223,-11 235,13 11,25 6,40 6,40 0,0 -28,-26 -141,30 -112,56 -146,109 -168,232 -23,124 -45,161 -45,161l-76 21c0,0 -12,-32 -13,-69 -1,-37 11,-62 11,-62l-30 1c0,0 7,90 6,113 0,22 -1,25 -1,25 -159,-27 -188,-274 -246,-408z" style="fill: rgb(202, 43, 65);" transform="matrix(0.12255483120679854, 0, 0, 0.12255483120679854, -34.85349409102855, -18.196776517535454)"/><path class="fil12" d="M5071 3906c0,0 79,53 166,58 86,5 103,122 103,122l80 -19c-72,-89 -9,-280 -90,-353 -31,-28 -259,192 -259,192z" style="fill: rgb(47, 17, 45);" transform="matrix(0.12255483120679854, 0, 0, 0.12255483120679854, -34.85349409102855, -18.196776517535454)"/><path class="fil12" d="M7201 3920c0,0 -89,50 -179,55 -91,5 -108,127 -108,127l-84 -19c75,-93 40,-311 102,-361 34,-27 269,198 269,198z" style="fill: rgb(47, 17, 45);" transform="matrix(0.12255483120679854, 0, 0, 0.12255483120679854, -34.85349409102855, -18.196776517535454)"/><path class="fil12" d="M6904 3952c0,0 -68,-214 102,-284 170,-69 292,29 380,56 88,26 118,30 118,30l-23 62c0,0 -22,-8 -46,-17 -24,-9 -30,-16 -30,-16 -174,131 -278,211 -501,169z" style="fill: rgb(47, 17, 45);" transform="matrix(0.12255483120679854, 0, 0, 0.12255483120679854, -34.85349409102855, -18.196776517535454)"/><path class="fil10" d="M7056 3669c0,0 -150,47 -96,167 161,328 572,-262 96,-167zm28 76c59,-9 45,28 23,39 -22,11 -59,-26 -23,-39z" style="fill: rgb(186, 60, 18);" transform="matrix(0.12255483120679854, 0, 0, 0.12255483120679854, -34.85349409102855, -18.196776517535454)"/><path class="fil19" d="M7186 3796l42 54c0,0 -37,52 -119,68 -82,16 -121,-56 -121,-56l198 -66zm11 -4c0,0 31,26 38,29 8,4 27,-49 27,-49l-53 -25c0,0 -7,29 -12,45z" style="fill: rgb(243, 121, 52);" transform="matrix(0.12255483120679854, 0, 0, 0.12255483120679854, -34.85349409102855, -18.196776517535454)"/><path class="fil13" d="M7044 3727c3,15 7,24 7,24 0,0 26,-13 32,-18 6,-4 -1,-28 -1,-28l-38 22z" style="fill: rgb(254, 254, 254);" transform="matrix(0.12255483120679854, 0, 0, 0.12255483120679854, -34.85349409102855, -18.196776517535454)"/><path class="fil12" d="M4800 3788c0,0 60,-161 303,-161 243,0 276,163 272,221 -4,58 -23,113 -23,113 0,0 -94,23 -211,-20 -118,-43 -200,-159 -200,-159 -24,-10 -91,5 -110,20l-31 -14z" style="fill: rgb(47, 17, 45);" transform="matrix(0.12255483120679854, 0, 0, 0.12255483120679854, -34.85349409102855, -18.196776517535454)"/><path class="fil10" d="M5223 3669c0,0 150,47 96,167 -161,328 -572,-262 -96,-167zm-28 76c-59,-9 -45,28 -23,39 22,11 59,-26 23,-39z" style="fill: rgb(186, 60, 18);" transform="matrix(0.12255483120679854, 0, 0, 0.12255483120679854, -34.85349409102855, -18.196776517535454)"/><path class="fil19" d="M5093 3796l-42 54c0,0 37,52 119,68 82,16 121,-56 121,-56l-198 -66zm-11 -4c0,0 -31,26 -38,29 -8,4 -27,-49 -27,-49l53 -25c0,0 7,29 12,45z" style="fill: rgb(243, 121, 52);" transform="matrix(0.12255483120679854, 0, 0, 0.12255483120679854, -34.85349409102855, -18.196776517535454)"/><path class="fil13" d="M5235 3727c-3,15 -7,24 -7,24 0,0 -26,-13 -32,-18 -6,-4 1,-28 1,-28l38 22z" style="fill: rgb(254, 254, 254);" transform="matrix(0.12255483120679854, 0, 0, 0.12255483120679854, -34.85349409102855, -18.196776517535454)"/><path class="fil20" d="M7050 3666c-1,0 -431,123 -256,845 88,365 109,593 90,744 -20,153 -55,237 -126,295l-8 -9c70,-57 103,-139 122,-287 19,-150 -1,-377 -89,-740 -178,-733 263,-859 264,-860l3 12z" style="fill: rgb(47, 17, 45); fill-rule: nonzero;" transform="matrix(0.12255483120679854, 0, 0, 0.12255483120679854, -34.85349409102855, -18.196776517535454)"/><path class="fil12" d="M5919 5838c0,0 51,-144 -64,-199 -115,-55 -203,30 -203,30 0,0 -50,-8 -114,-83 -64,-75 -69,-96 -69,-96 5,237 258,314 450,348z" style="fill: rgb(47, 17, 45);" transform="matrix(0.12255483120679854, 0, 0, 0.12255483120679854, -34.85349409102855, -18.196776517535454)"/><path class="fil12" d="M6334 5838c0,0 -51,-144 64,-199 116,-55 203,30 203,30 0,0 51,-8 115,-83 64,-75 69,-96 69,-96 -6,237 -259,314 -451,348z" style="fill: rgb(47, 17, 45);" transform="matrix(0.12255483120679854, 0, 0, 0.12255483120679854, -34.85349409102855, -18.196776517535454)"/><path class="fil20" d="M5212 3641c1,0 348,31 260,874 -20,186 -38,326 -52,435 -50,382 -54,390 119,637l-10 7c-175,-251 -171,-259 -121,-645 15,-109 33,-249 52,-435 87,-832 -248,-862 -249,-862l1 -11z" style="fill: rgb(47, 17, 45); fill-rule: nonzero;" transform="matrix(0.12255483120679854, 0, 0, 0.12255483120679854, -34.85349409102855, -18.196776517535454)"/><path class="fil20" d="M5676 5685c0,-1 -115,-194 94,-149 49,10 91,22 131,34 120,35 216,63 392,12 104,-29 194,-40 254,-31 26,4 46,12 60,24 14,13 20,29 18,50 -2,22 -15,48 -39,79l-9 -7c23,-29 34,-53 37,-73 1,-17 -4,-30 -15,-40 -12,-11 -30,-18 -54,-21 -58,-10 -147,1 -248,30 -180,52 -278,23 -399,-12 -40,-11 -82,-24 -130,-34 -183,-39 -82,132 -82,132l-10 6z" style="fill: rgb(47, 17, 45); fill-rule: nonzero;" transform="matrix(0.12255483120679854, 0, 0, 0.12255483120679854, -34.85349409102855, -18.196776517535454)"/><path class="fil12" d="M5405 6894l-37 -113c0,0 205,26 398,-96 193,-122 358,-229 358,-229 0,0 319,170 469,245 149,76 356,90 356,90l-54 99c0,0 -245,-143 -366,-203 -121,-60 -176,-77 -176,-77 0,0 -139,18 -243,30 -104,12 -217,-3 -217,-3 0,0 -238,137 -488,257z" style="fill: rgb(47, 17, 45);" transform="matrix(0.12255483120679854, 0, 0, 0.12255483120679854, -34.85349409102855, -18.196776517535454)"/><path class="fil20" d="M4901 3748c31,147 147,188 246,222 83,30 155,55 161,134l0 0c12,-2 7,13 9,21 1,8 -27,14 -27,14l0 -33c0,0 3,0 7,-1 -6,-72 -75,-96 -154,-124 -102,-36 -221,-77 -254,-231l12 -2z" style="fill: rgb(47, 17, 45); fill-rule: nonzero;" transform="matrix(0.12255483120679854, 0, 0, 0.12255483120679854, -34.85349409102855, -18.196776517535454)"/><path class="fil20" d="M5111 3639c-1,0 -213,-31 -409,195 -100,115 -179,176 -264,198 -33,9 -66,12 -102,10 -46,34 -92,43 -133,40 -38,-3 -72,-18 -95,-35 -24,-18 -37,-39 -33,-52 5,-14 25,-19 67,-6 74,23 135,38 191,41 93,-71 185,-248 216,-636 65,-807 260,-942 466,-926 62,5 126,24 187,43 11,3 22,7 35,11 217,64 380,-58 429,-102 -5,-6 -9,-11 -9,-11l21 -36c-25,-37 -93,-138 -278,-412 -135,-201 -81,-354 -24,-514 61,-174 125,-355 -58,-615l-7 6 -24 -41c0,0 19,-8 25,-10 6,-3 20,34 20,34l-5 4c187,265 122,449 60,626 -56,157 -109,308 23,504 177,263 247,367 275,407l3 -6 48 37c0,0 -44,54 -53,46 -3,-3 -6,-6 -9,-10 -52,45 -219,169 -440,104 -11,-3 -23,-7 -35,-11 -61,-18 -124,-38 -185,-42 -200,-16 -390,117 -454,915 -30,377 -117,558 -210,636 30,0 58,-3 85,-10 83,-22 160,-82 258,-195 200,-231 419,-199 420,-199l-2 12zm-793 402c-53,-5 -111,-20 -179,-41 -34,-11 -50,-9 -53,-1 -3,8 9,24 29,39 21,16 53,30 89,32 35,3 74,-4 114,-29z" style="fill: rgb(47, 17, 45); fill-rule: nonzero;" transform="matrix(0.12255483120679854, 0, 0, 0.12255483120679854, -34.85349409102855, -18.196776517535454)"/><path class="fil18" d="M7368 3849l117 55c0,0 -9,44 -158,135 -148,91 -278,110 -278,110l-59 -12c0,0 -9,-95 85,-132 94,-36 224,-68 293,-156z" style="fill: rgb(253, 205, 155);" transform="matrix(0.12255483120679854, 0, 0, 0.12255483120679854, -34.85349409102855, -18.196776517535454)"/><path class="fil14" d="M7368 3849l117 55c0,0 -9,44 -158,135l-2 1c-27,-30 -67,-68 -94,-93 53,-24 103,-54 137,-98z" style="fill: rgb(244, 175, 114);" transform="matrix(0.12255483120679854, 0, 0, 0.12255483120679854, -34.85349409102855, -18.196776517535454)"/><path class="fil17" d="M7368 3849l117 55c0,0 -5,23 -63,70 -10,-22 -47,-78 -68,-108 5,-5 10,-11 14,-17z" style="fill: rgb(245, 99, 118);" transform="matrix(0.12255483120679854, 0, 0, 0.12255483120679854, -34.85349409102855, -18.196776517535454)"/><path class="fil13" d="M7127 4130c-48,15 -78,19 -78,19l-51 -11c5,-19 18,-56 30,-68 17,-17 125,11 125,11 0,0 -13,24 -26,49zm50 -47c14,-2 47,-20 47,-20l-17 -39 -36 33c1,8 4,18 6,26z" style="fill: rgb(254, 254, 254);" transform="matrix(0.12255483120679854, 0, 0, 0.12255483120679854, -34.85349409102855, -18.196776517535454)"/><path class="fil8" d="M4899 3528c0,0 33,17 45,24 12,7 83,-16 140,-21 58,-6 137,9 137,9 0,0 -43,-69 -49,-78 -6,-9 -27,-14 -27,-14l-111 36 0 20 -32 -9 -103 33zm391 15l71 -50c0,0 17,39 29,66 11,27 13,79 13,79l-9 3c0,0 -82,-86 -104,-98z" style="fill: rgb(173, 66, 155);" transform="matrix(0.12255483120679854, 0, 0, 0.12255483120679854, -34.85349409102855, -18.196776517535454)"/><path class="fil8" d="M6772 3687c0,0 -40,49 -59,93 -18,44 -29,79 -29,79 0,0 11,12 -82,-40 -93,-53 -160,-216 -160,-216l11 -25 -27 0 15 -47c0,0 108,125 162,149 54,25 63,27 63,27l-2 35 47 -53 61 -2z" style="fill: rgb(173, 66, 155);" transform="matrix(0.12255483120679854, 0, 0, 0.12255483120679854, -34.85349409102855, -18.196776517535454)"/><path class="fil8" d="M6858 4642l44 -13c0,0 72,195 88,241 17,46 -24,184 -24,184l-108 -412z" style="fill: rgb(173, 66, 155);" transform="matrix(0.12255483120679854, 0, 0, 0.12255483120679854, -34.85349409102855, -18.196776517535454)"/><path class="fil8" d="M6754 5879l22 27 171 -20c0,0 282,-60 312,-80 30,-20 17,-91 17,-91 0,0 -234,126 -247,126 -14,0 -41,-7 -55,-9 -15,-1 -220,47 -220,47z" style="fill: rgb(173, 66, 155);" transform="matrix(0.12255483120679854, 0, 0, 0.12255483120679854, -34.85349409102855, -18.196776517535454)"/><path class="fil21" d="M6534 6046l9 31c0,0 34,5 80,13l0 -30c-44,-3 -77,-8 -89,-14zm120 48c82,13 187,28 223,28 65,0 173,-33 173,-33l33 -38c0,0 48,10 91,2 42,-8 152,-64 152,-64l-88 -54c0,0 -138,77 -194,105 -40,20 -251,28 -390,21l0 33z" style="fill: rgb(3, 128, 194);" transform="matrix(0.12255483120679854, 0, 0, 0.12255483120679854, -34.85349409102855, -18.196776517535454)"/><path class="fil5" d="M4630 4393c28,-64 47,-22 28,-123l-83 35 55 88z" style="fill: rgb(97, 185, 106);" transform="matrix(0.12255483120679854, 0, 0, 0.12255483120679854, -34.85349409102855, -18.196776517535454)"/><path class="fil20" d="M7398 3748c-31,147 -147,188 -246,222 -83,30 -154,55 -161,132l-8 0 -2 31c0,0 29,13 29,6 -1,-7 5,-37 1,-37l-9 0c8,-69 76,-93 154,-121 102,-36 221,-77 253,-231l-11 -2z" style="fill: rgb(47, 17, 45); fill-rule: nonzero;" transform="matrix(0.12255483120679854, 0, 0, 0.12255483120679854, -34.85349409102855, -18.196776517535454)"/><path class="fil4" d="M5493 5895l1 22c0,0 -29,14 -78,5 -49,-9 -107,-29 -107,-29l-23 -11c0,0 -40,8 -82,6 -42,-3 -212,-54 -212,-54l25 -57c0,0 273,87 287,90 15,2 189,28 189,28z" style="fill: rgb(87, 164, 220);" transform="matrix(0.12255483120679854, 0, 0, 0.12255483120679854, -34.85349409102855, -18.196776517535454)"/><path class="fil8" d="M5724 6047l15 30c0,0 -91,53 -165,60 -75,8 -212,-12 -212,-12l-25 -14c0,0 -90,7 -118,3 -29,-3 -81,-17 -81,-17l2 -55c0,0 327,60 387,65 60,5 175,-33 175,-33l22 -27z" style="fill: rgb(173, 66, 155);" transform="matrix(0.12255483120679854, 0, 0, 0.12255483120679854, -34.85349409102855, -18.196776517535454)"/><path class="fil22" d="M6676 6261l37 -2 1 43c0,0 -41,9 -50,2 -10,-7 12,-43 12,-43zm83 -3c0,0 137,-5 167,-10 31,-4 167,-24 222,-47 55,-23 126,-52 126,-52l15 64c0,0 -106,3 -115,3 -9,0 -29,8 -104,42 -75,33 -306,23 -306,23l-5 -23z" style="fill: rgb(115, 200, 158);" transform="matrix(0.12255483120679854, 0, 0, 0.12255483120679854, -34.85349409102855, -18.196776517535454)"/><path class="fil23" d="M5152 6227c0,0 105,28 209,35 104,7 144,18 144,18l27 -25c0,0 114,32 125,35 11,3 3,27 3,27 0,0 -357,-18 -411,-18 -54,0 -74,-7 -74,-7l-23 -65z" style="fill: rgb(242, 96, 107);" transform="matrix(0.12255483120679854, 0, 0, 0.12255483120679854, -34.85349409102855, -18.196776517535454)"/><path class="fil4" d="M5751 3225l74 -48 -68 -60c0,0 -36,76 -6,108z" style="fill: rgb(87, 164, 220);" transform="matrix(0.12255483120679854, 0, 0, 0.12255483120679854, -34.85349409102855, -18.196776517535454)"/><path class="fil17" d="M6924 5129l36 0c0,0 -7,31 -13,47 -5,15 -36,-4 -36,-4l13 -43z" style="fill: rgb(245, 99, 118);" transform="matrix(0.12255483120679854, 0, 0, 0.12255483120679854, -34.85349409102855, -18.196776517535454)"/><path class="fil20" d="M5480 4366c-34,124 -153,480 -443,684 -334,234 -313,277 -189,532l23 47c136,282 148,306 117,435 -26,109 -25,112 11,191 5,12 11,26 19,44 18,41 33,72 47,101 28,60 50,106 77,198 20,67 49,121 99,153 50,32 137,47 240,29l2 12c-106,18 -196,2 -248,-32 -53,-33 -83,-89 -104,-159 -26,-91 -48,-137 -77,-196 -13,-29 -28,-60 -46,-101 -7,-16 -14,-31 -20,-44 -37,-83 -38,-85 -11,-199 29,-125 18,-148 -116,-427l-23 -47c-128,-262 -149,-307 192,-547 286,-201 404,-552 438,-676 -8,0 2,-50 2,-50 0,0 9,-2 15,0 6,2 10,3 8,19 -2,16 -5,36 -5,36 0,0 -4,-2 -8,-3z" style="fill: rgb(47, 17, 45); fill-rule: nonzero;" transform="matrix(0.12255483120679854, 0, 0, 0.12255483120679854, -34.85349409102855, -18.196776517535454)"/><path class="fil20" d="M6812 4558c42,75 140,229 302,377 164,150 246,233 265,499 8,102 -51,330 -34,453 47,324 19,370 -23,441 -15,25 -33,54 -49,100 -9,25 -19,51 -31,78 -36,80 -88,165 -150,224 -63,59 -156,93 -237,65 -5,-2 -11,-4 -17,-7l5 -11c5,3 11,5 16,7 76,27 165,-6 225,-63 61,-57 112,-141 147,-220 12,-26 23,-52 31,-77 17,-47 34,-77 50,-102 41,-69 68,-114 22,-434 -18,-123 41,-351 34,-454 -19,-263 -101,-344 -262,-491 -161,-146 -259,-299 -302,-376 -7,2 -15,2 -15,2l-17 -64c3,0 24,-6 27,-6 3,0 8,50 13,59zm0 0l0 0c3,4 -2,7 -8,9l8 -9z" style="fill: rgb(47, 17, 45); fill-rule: nonzero;" transform="matrix(0.12255483120679854, 0, 0, 0.12255483120679854, -34.85349409102855, -18.196776517535454)"/><path class="fil20" d="M7317 3696c0,0 159,67 358,77 85,4 157,-6 216,-15 27,-4 51,-8 73,-9 -57,-71 -133,-201 -219,-426 -32,-83 -59,-154 -81,-216 -139,-376 -142,-382 -459,-536 -129,-62 -210,-119 -270,-161 -105,-73 -143,-100 -253,-23l12 17c0,0 -45,11 -54,14 -10,3 -15,-22 -15,-22l44 -27 7 9c116,-82 155,-54 265,23 60,42 141,98 269,160 321,156 324,162 464,542 23,62 50,133 82,216 88,232 165,361 222,429 38,-2 69,4 92,26 13,12 18,25 17,34 -1,11 -8,18 -21,17 -11,0 -26,-5 -44,-19 -14,-10 -30,-25 -49,-46 -23,1 -50,5 -80,9 -60,9 -133,20 -219,15 -201,-10 -361,-77 -362,-78l5 -10zm746 87c-19,-18 -44,-24 -75,-24 15,17 29,29 41,38 16,12 29,17 37,17 6,0 9,-3 10,-7 0,-6 -4,-15 -13,-24z" style="fill: rgb(47, 17, 45); fill-rule: nonzero;" transform="matrix(0.12255483120679854, 0, 0, 0.12255483120679854, -34.85349409102855, -18.196776517535454)"/><path class="fil4" d="M7455 3309c0,0 11,48 21,54 10,5 106,-29 106,-29l-85 -48 -42 23z" style="fill: rgb(87, 164, 220);" transform="matrix(0.12255483120679854, 0, 0, 0.12255483120679854, -34.85349409102855, -18.196776517535454)"/><path class="fil13" d="M5441 4852c0,0 77,-6 104,-6 27,-1 35,-67 33,-94 -3,-26 -116,-35 -116,-35l-21 135z" style="fill: rgb(254, 254, 254);" transform="matrix(0.12255483120679854, 0, 0, 0.12255483120679854, -34.85349409102855, -18.196776517535454)"/><path class="fil7" d="M5077 5546l36 20c0,0 13,30 -19,48 -31,17 -66,-20 -66,-20l49 -48z" style="fill: rgb(29, 107, 117);" transform="matrix(0.12255483120679854, 0, 0, 0.12255483120679854, -34.85349409102855, -18.196776517535454)"/><path class="fil8" d="M7149 5636c33,2 45,0 45,20 0,21 -26,36 -26,36l-64 -11 45 -45z" style="fill: rgb(173, 66, 155);" transform="matrix(0.12255483120679854, 0, 0, 0.12255483120679854, -34.85349409102855, -18.196776517535454)"/><path class="fil13" d="M6397 6049l100 -138c0,0 213,81 505,20 292,-61 344,-170 344,-170l14 10c0,0 -102,117 -312,185 -210,69 -651,93 -651,93z" style="fill: rgb(254, 254, 254);" transform="matrix(0.12255483120679854, 0, 0, 0.12255483120679854, -34.85349409102855, -18.196776517535454)"/><path class="fil13" d="M7269 6059l25 -32c0,0 278,24 474,59 196,35 597,-7 597,-7l-1 14c0,0 -300,18 -553,27 -252,9 -542,-61 -542,-61z" style="fill: rgb(254, 254, 254);" transform="matrix(0.12255483120679854, 0, 0, 0.12255483120679854, -34.85349409102855, -18.196776517535454)"/><path class="fil13" d="M6181 6334l116 -214c0,0 121,35 147,46 26,11 60,0 60,0l-54 -75 38 -11c0,0 288,112 378,123 91,10 352,-140 352,-140l74 48c0,0 -171,78 -317,107 -146,29 -321,30 -321,30l31 100c0,0 156,-37 278,-53 122,-16 277,-61 277,-61 0,0 -191,182 -280,248 -90,65 -184,47 -184,47l112 56 -184 78c0,0 -389,-48 -523,-329z" style="fill: rgb(254, 254, 254);" transform="matrix(0.12255483120679854, 0, 0, 0.12255483120679854, -34.85349409102855, -18.196776517535454)"/><path class="fil14" d="M6235 6998c0,0 96,-6 113,-9 17,-2 31,118 31,118 0,0 -18,2 -23,2 -6,0 -89,-51 -121,-111z" style="fill: rgb(244, 175, 114);" transform="matrix(0.12255483120679854, 0, 0, 0.12255483120679854, -34.85349409102855, -18.196776517535454)"/><path class="fil14" d="M5686 6909c0,0 50,43 58,46 8,3 -61,55 -70,59 -9,5 -91,-1 -91,-1l103 -104z" style="fill: rgb(244, 175, 114);" transform="matrix(0.12255483120679854, 0, 0, 0.12255483120679854, -34.85349409102855, -18.196776517535454)"/><path class="fil4" d="M7689 4712c0,0 -147,-111 -242,-157 -95,-46 -121,-46 -121,-46l-31 27c0,0 26,129 46,190 20,61 209,139 209,139l139 -153z" style="fill: rgb(87, 164, 220);" transform="matrix(0.12255483120679854, 0, 0, 0.12255483120679854, -34.85349409102855, -18.196776517535454)"/><path class="fil5" d="M4999 4767c-29,-6 -131,-6 -200,-124 -69,-119 -92,-296 -92,-296 -36,96 -88,165 -125,263 0,0 21,55 49,113 24,4 48,7 57,8 20,1 29,2 29,2 0,0 -33,30 -58,44 19,34 38,61 54,69 49,27 286,-79 286,-79z" style="fill: rgb(97, 185, 106);" transform="matrix(0.12255483120679854, 0, 0, 0.12255483120679854, -34.85349409102855, -18.196776517535454)"/><path class="fil20" d="M6649 2396c0,-1 -118,-306 -145,-567 -14,-138 78,-158 206,-186 117,-26 266,-58 386,-198 -9,-6 -15,-11 -15,-11l20 -34 40 11c0,0 -7,55 -16,52 -4,-1 -12,-6 -20,-11 -123,143 -273,176 -393,202 -122,27 -210,47 -197,174 28,259 145,563 145,564l-11 4z" style="fill: rgb(47, 17, 45); fill-rule: nonzero;" transform="matrix(0.12255483120679854, 0, 0, 0.12255483120679854, -34.85349409102855, -18.196776517535454)"/><path class="fil20" d="M7569 2889c0,-1 71,-211 671,148 491,294 530,241 719,-20 38,-53 82,-113 137,-181 327,-406 32,-677 31,-678l8 -8c1,1 304,279 -30,694 -55,67 -98,127 -136,179 -195,269 -234,323 -735,24 -588,-352 -654,-155 -654,-154l-11 -4z" style="fill: rgb(47, 17, 45); fill-rule: nonzero;" transform="matrix(0.12255483120679854, 0, 0, 0.12255483120679854, -34.85349409102855, -18.196776517535454)"/><path class="fil12" d="M7561 2864c5,-3 20,-7 28,-11 7,-4 13,48 12,52 -1,5 -24,-3 -24,-3l-16 -38z" style="fill: rgb(47, 17, 45);" transform="matrix(0.12255483120679854, 0, 0, 0.12255483120679854, -34.85349409102855, -18.196776517535454)"/><path class="fil12" d="M9118 2178c0,0 33,-15 42,-25 8,-10 -35,-35 -35,-35l-27 27 20 33z" style="fill: rgb(47, 17, 45);" transform="matrix(0.12255483120679854, 0, 0, 0.12255483120679854, -34.85349409102855, -18.196776517535454)"/><path class="fil1" d="M6846 1967c0,0 132,-95 633,-201 500,-107 629,-245 629,-245l256 385c0,0 -80,109 -199,158 -118,48 -404,138 -404,138 0,0 270,-61 398,-100 128,-38 151,-51 151,-51l19 38c0,0 -266,167 -745,135 -478,-32 -635,-116 -635,-116l-41 -55c54,-46 137,-97 137,-97 0,0 -31,5 -86,26 -26,9 -54,23 -77,35l-36 -50zm-40 10c0,0 17,41 21,46 4,5 -30,18 -57,23 -27,5 -62,-73 -62,-73l98 4z" style="fill: rgb(255, 240, 0);" transform="matrix(0.12255483120679854, 0, 0, 0.12255483120679854, -34.85349409102855, -18.196776517535454)"/><path class="fil4" d="M5678 1998c0,0 49,-29 70,-44 21,-15 -28,-116 -42,-135 -15,-19 -42,-46 -42,-46 0,0 -1,174 14,225z" style="fill: rgb(87, 164, 220);" transform="matrix(0.12255483120679854, 0, 0, 0.12255483120679854, -34.85349409102855, -18.196776517535454)"/><path class="fil8" d="M4458 1916c0,0 133,-42 171,-60 38,-18 -103,-145 -103,-145l-115 100 47 105z" style="fill: rgb(173, 66, 155);" transform="matrix(0.12255483120679854, 0, 0, 0.12255483120679854, -34.85349409102855, -18.196776517535454)"/><path class="fil17" d="M5620 1690c-28,-26 -108,-205 -121,-224 -12,-18 -176,50 -176,50 0,0 152,98 172,113 21,14 125,61 125,61z" style="fill: rgb(245, 99, 118);" transform="matrix(0.12255483120679854, 0, 0, 0.12255483120679854, -34.85349409102855, -18.196776517535454)"/><path class="fil1" d="M4980 2249c0,0 -190,36 -515,39 -325,2 -882,32 -882,32l-91 385c0,0 396,-88 770,-160 374,-72 728,-174 728,-174l-10 -122z" style="fill: rgb(255, 240, 0);" transform="matrix(0.12255483120679854, 0, 0, 0.12255483120679854, -34.85349409102855, -18.196776517535454)"/><path class="fil1" d="M5049 2348l25 -68c0,0 74,-3 100,5 26,9 18,42 18,42l-143 21z" style="fill: rgb(255, 240, 0);" transform="matrix(0.12255483120679854, 0, 0, 0.12255483120679854, -34.85349409102855, -18.196776517535454)"/><path class="fil12" d="M8557 3630c0,0 42,74 45,84 3,9 101,-3 128,-39 28,-35 29,-151 29,-151l-202 106z" style="fill: rgb(47, 17, 45);" transform="matrix(0.12255483120679854, 0, 0, 0.12255483120679854, -34.85349409102855, -18.196776517535454)"/><path class="fil11" d="M7264 1716c0,0 431,-36 730,-173 299,-137 402,-223 402,-223l127 159 -25 67c0,0 81,4 108,-8 27,-12 81,-24 81,-24l20 36c0,0 -632,130 -921,187 -289,56 -448,80 -448,80l-74 -101z" style="fill: rgb(247, 147, 62);" transform="matrix(0.12255483120679854, 0, 0, 0.12255483120679854, -34.85349409102855, -18.196776517535454)"/><path class="fil13" d="M6348 1598c0,0 94,-205 191,-344 98,-139 156,-175 156,-175l294 153c0,0 -183,109 -266,187 -84,77 -328,171 -328,171l-47 8z" style="fill: rgb(254, 254, 254);" transform="matrix(0.12255483120679854, 0, 0, 0.12255483120679854, -34.85349409102855, -18.196776517535454)"/><path class="fil13" d="M4872 2366c-24,-39 -343,-152 -380,-185 -36,-33 -153,147 -153,147 0,0 360,66 414,64 53,-2 119,-26 119,-26z" style="fill: rgb(254, 254, 254);" transform="matrix(0.12255483120679854, 0, 0, 0.12255483120679854, -34.85349409102855, -18.196776517535454)"/><path class="fil20" d="M4553 3306c-39,53 -191,218 -654,324 -518,120 -609,313 -783,678 -10,21 -20,43 -32,69 -172,359 -627,398 -747,401 -1,5 -2,9 -2,12 -1,9 -51,7 -51,7l-1 -46 60 -2c0,0 -2,9 -4,18 123,-4 566,-44 734,-395 10,-21 22,-45 33,-69 175,-368 267,-563 791,-684 456,-105 607,-266 645,-318l-5 -3 16 -25c0,0 13,3 18,5 5,1 2,10 2,16 0,6 -17,14 -17,14l-3 -2z" style="fill: rgb(47, 17, 45); fill-rule: nonzero;" transform="matrix(0.12255483120679854, 0, 0, 0.12255483120679854, -34.85349409102855, -18.196776517535454)"/><path class="fil12" d="M5340 2150c0,0 43,-47 70,-64 27,-17 -127,-181 -127,-181 0,0 -25,64 -25,74 0,9 82,171 82,171z" style="fill: rgb(47, 17, 45);" transform="matrix(0.12255483120679854, 0, 0, 0.12255483120679854, -34.85349409102855, -18.196776517535454)"/><path class="fil8" d="M4148 2829c-174,8 -630,44 -918,224 -361,226 -717,281 -717,281l10 70c0,0 206,-83 333,-144 128,-62 223,-79 223,-79 0,0 -261,87 -339,161 -78,73 -98,-40 -29,120 68,159 196,200 196,200 0,0 227,-115 335,-178 108,-64 328,-306 328,-306 0,0 -178,279 -240,338 -61,58 -139,85 -139,85l58 69c0,0 311,-233 449,-390 137,-156 542,-140 542,-140l6 -144c0,0 -223,-19 -299,-12 -76,7 -124,5 -124,5 0,0 262,-98 301,-98 7,0 15,0 23,-1l1 -61z" style="fill: rgb(173, 66, 155);" transform="matrix(0.12255483120679854, 0, 0, 0.12255483120679854, -34.85349409102855, -18.196776517535454)"/><path class="fil8" d="M4295 3010c0,0 2,103 5,117 3,13 62,30 89,14 26,-16 59,-166 59,-166l-153 35z" style="fill: rgb(173, 66, 155);" transform="matrix(0.12255483120679854, 0, 0, 0.12255483120679854, -34.85349409102855, -18.196776517535454)"/><path class="fil0" d="M7941 4531c28,12 106,58 189,78 82,21 135,21 135,21 0,0 -102,263 -119,287 -16,25 -220,-297 -220,-297l15 -89z" style="fill: white;" transform="matrix(0.12255483120679854, 0, 0, 0.12255483120679854, -34.85349409102855, -18.196776517535454)"/><path class="fil0" d="M6918 2213c0,0 18,-41 259,-97 240,-56 422,-184 422,-184 0,0 121,163 152,184 32,21 -612,71 -833,97z" style="fill: white;" transform="matrix(0.12255483120679854, 0, 0, 0.12255483120679854, -34.85349409102855, -18.196776517535454)"/><path class="fil13" d="M5329 6170c0,0 58,-11 -256,28 -314,38 -640,-3 -640,-3l-1 32c0,0 249,66 897,-57z" style="fill: rgb(254, 254, 254);" transform="matrix(0.12255483120679854, 0, 0, 0.12255483120679854, -34.85349409102855, -18.196776517535454)"/><path class="fil13" d="M5408 6407c0,0 -72,33 -243,118 -170,86 -362,102 -362,102l11 70c0,0 363,-133 594,-290z" style="fill: rgb(254, 254, 254);" transform="matrix(0.12255483120679854, 0, 0, 0.12255483120679854, -34.85349409102855, -18.196776517535454)"/><path class="fil13" d="M6930 6339c0,0 150,46 484,109 333,64 820,108 820,108l-26 59c0,0 -523,-92 -753,-132 -230,-40 -546,-133 -546,-133l21 -11z" style="fill: rgb(254, 254, 254);" transform="matrix(0.12255483120679854, 0, 0, 0.12255483120679854, -34.85349409102855, -18.196776517535454)"/><path class="fil13" d="M7126 6316c0,0 181,-54 218,-64 36,-11 63,-26 63,-26l-2 45c0,0 -227,59 -279,45z" style="fill: rgb(254, 254, 254);" transform="matrix(0.12255483120679854, 0, 0, 0.12255483120679854, -34.85349409102855, -18.196776517535454)"/><path class="fil13" d="M6794 6445c0,0 201,2 474,223 273,220 281,303 281,303l-55 30c0,0 -391,-640 -700,-556z" style="fill: rgb(254, 254, 254);" transform="matrix(0.12255483120679854, 0, 0, 0.12255483120679854, -34.85349409102855, -18.196776517535454)"/><path class="fil13" d="M5441 6508c0,0 -184,41 -286,220 -103,180 -113,262 -113,262l49 23c0,0 -16,-467 350,-505z" style="fill: rgb(254, 254, 254);" transform="matrix(0.12255483120679854, 0, 0, 0.12255483120679854, -34.85349409102855, -18.196776517535454)"/><path class="fil1" d="M8036 5733c58,24 103,49 132,53 28,4 45,86 20,90 -24,4 -98,4 -98,4l-54 -147z" style="fill: rgb(255, 240, 0);" transform="matrix(0.12255483120679854, 0, 0, 0.12255483120679854, -34.85349409102855, -18.196776517535454)"/><path class="fil8" d="M3887 5896l66 62c0,0 11,39 -38,48 -49,8 -104,-54 -104,-54l76 -56z" style="fill: rgb(173, 66, 155);" transform="matrix(0.12255483120679854, 0, 0, 0.12255483120679854, -34.85349409102855, -18.196776517535454)"/><path class="fil9" d="M4186 5132c0,0 155,-74 -118,112 -273,187 -428,214 -428,214l54 193c0,0 347,-262 492,-519z" style="fill: rgb(93, 185, 236);" transform="matrix(0.12255483120679854, 0, 0, 0.12255483120679854, -34.85349409102855, -18.196776517535454)"/><path class="fil20" d="M6915 2153c1,0 295,-182 399,-207 29,-7 78,-5 139,-2 160,7 409,19 605,-126 273,-201 386,-263 387,-264l2 -1 3 1c0,0 223,93 292,128 1,-3 2,-6 2,-6l33 9c0,0 -18,25 -26,23 -9,-2 -20,-8 -16,-11 1,-1 1,-2 2,-4 -63,-33 -264,-117 -289,-127 -18,10 -133,77 -383,261 -200,148 -451,136 -613,128 -60,-3 -107,-5 -135,2 -102,25 -395,206 -396,206l-6 -10z" style="fill: rgb(47, 17, 45); fill-rule: nonzero;" transform="matrix(0.12255483120679854, 0, 0, 0.12255483120679854, -34.85349409102855, -18.196776517535454)"/><path class="fil20" d="M4251 2681c0,-1 -118,-115 -342,-210 -161,-68 -280,-78 -482,-93 -79,-7 -170,-14 -282,-26 -346,-38 -483,-255 -514,-314l-13 7c0,0 -7,-33 -4,-41 3,-8 12,-21 12,-21l25 44 -10 5c29,56 163,271 505,309 111,12 203,19 282,25 203,16 323,25 485,95 226,96 346,211 346,211l-8 9z" style="fill: rgb(47, 17, 45); fill-rule: nonzero;" transform="matrix(0.12255483120679854, 0, 0, 0.12255483120679854, -34.85349409102855, -18.196776517535454)"/><path class="fil20" d="M4843 5192c-53,47 -206,203 -330,516 -4,10 -8,19 -12,28 -77,166 -228,255 -427,275 -197,21 -441,-26 -706,-131 -49,-20 -99,-41 -149,-64 -512,-239 -724,-95 -775,-47 1,2 2,3 4,4 8,8 -30,26 -30,26l-18 -11 29 -34c0,0 3,3 7,7 54,-50 271,-196 788,44 50,23 99,45 148,64 263,104 506,151 701,131 194,-20 342,-107 418,-269 4,-9 7,-18 11,-27 126,-316 281,-474 334,-522 -2,-3 -4,-7 -7,-8l46 -40c0,0 13,33 12,36 0,3 -29,29 -38,26 -2,-1 -4,-2 -6,-4z" style="fill: rgb(47, 17, 45); fill-rule: nonzero;" transform="matrix(0.12255483120679854, 0, 0, 0.12255483120679854, -34.85349409102855, -18.196776517535454)"/><path class="fil0" d="M5035 1689c0,39 81,199 69,221 -13,21 -150,-103 -150,-103l81 -118z" style="fill: white;" transform="matrix(0.12255483120679854, 0, 0, 0.12255483120679854, -34.85349409102855, -18.196776517535454)"/><path class="fil15" d="M3313 4301c8,13 29,61 29,61 0,0 -46,43 -94,45 -49,2 -68,-55 -68,-55l133 -51z" style="fill: rgb(196, 216, 74);" transform="matrix(0.12255483120679854, 0, 0, 0.12255483120679854, -34.85349409102855, -18.196776517535454)"/><path class="fil9" d="M3360 2786l2 89c0,0 -96,26 -117,17 -20,-8 -67,-145 -67,-145l182 39z" style="fill: rgb(93, 185, 236);" transform="matrix(0.12255483120679854, 0, 0, 0.12255483120679854, -34.85349409102855, -18.196776517535454)"/><path class="fil11" d="M8690 3296c0,0 44,-21 91,-50 48,-28 108,47 108,47l-17 91c0,0 -148,-26 -182,-88z" style="fill: rgb(247, 147, 62);" transform="matrix(0.12255483120679854, 0, 0, 0.12255483120679854, -34.85349409102855, -18.196776517535454)"/><path class="fil8" d="M4641 1279c0,0 96,-47 135,-73 39,-26 -70,-226 -70,-226 0,0 -56,87 -69,117 -13,30 4,182 4,182z" style="fill: rgb(173, 66, 155);" transform="matrix(0.12255483120679854, 0, 0, 0.12255483120679854, -34.85349409102855, -18.196776517535454)"/><path class="fil9" d="M7233 724c20,14 63,67 75,67 11,0 110,-53 108,-72 -1,-18 -46,-117 -46,-117l-137 122z" style="fill: rgb(93, 185, 236);" transform="matrix(0.12255483120679854, 0, 0, 0.12255483120679854, -34.85349409102855, -18.196776517535454)"/><path class="fil5" d="M2878 1495c-32,37 -90,104 -90,104 0,0 -46,-9 -87,-29 -40,-20 -17,-159 -17,-159l194 84z" style="fill: rgb(97, 185, 106);" transform="matrix(0.12255483120679854, 0, 0, 0.12255483120679854, -34.85349409102855, -18.196776517535454)"/><path class="fil11" d="M8490 2159l9 73c0,0 360,-21 441,-58 81,-36 100,-63 100,-63l-13 -16 -537 64z" style="fill: rgb(247, 147, 62);" transform="matrix(0.12255483120679854, 0, 0, 0.12255483120679854, -34.85349409102855, -18.196776517535454)"/><path class="fil4" d="M7871 5272c0,0 174,72 722,9 547,-64 585,51 585,51l-203 152c0,0 -284,-119 -514,-148 -230,-29 -430,-13 -430,-13l-147 21 -13 -72z" style="fill: rgb(87, 164, 220);" transform="matrix(0.12255483120679854, 0, 0, 0.12255483120679854, -34.85349409102855, -18.196776517535454)"/><path class="fil20" d="M7307 5157c66,108 288,422 717,531 217,55 415,-78 615,-212 274,-185 552,-371 891,-83 7,-3 14,-4 14,-4l26 23 -26 20c0,0 -28,-28 -22,-33 -333,-281 -607,-97 -878,85 -201,135 -401,269 -623,213 -433,-110 -657,-428 -723,-536 -4,1 -8,2 -8,2l-23 -39c2,0 23,-13 28,-14 5,0 7,24 16,36 3,5 0,8 -4,11z" style="fill: rgb(47, 17, 45); fill-rule: nonzero;" transform="matrix(0.12255483120679854, 0, 0, 0.12255483120679854, -34.85349409102855, -18.196776517535454)"/><path class="fil24" d="M6037 1176c1,-1 171,-342 -193,-588 -60,-41 -109,-78 -151,-108 -204,-152 -213,-159 -579,85 -412,275 -751,111 -802,84 -22,41 -138,268 -122,359 9,-2 17,-4 18,-4 3,0 2,23 5,37 3,15 -28,20 -28,20l-30 -43c0,0 10,-3 21,-6 -18,-109 126,-376 126,-377l4 -7 6 4c1,1 354,213 794,-79 374,-250 384,-243 596,-85 41,30 90,66 151,107 374,254 198,606 198,607l-14 -6z" style="fill: rgb(186, 60, 18); fill-rule: nonzero;" transform="matrix(0.12255483120679854, 0, 0, 0.12255483120679854, -34.85349409102855, -18.196776517535454)"/><path class="fil25" d="M7283 1227c0,0 196,37 470,-274 45,-52 78,-92 102,-122 42,-53 60,-76 82,-72 16,2 30,18 55,45 40,45 110,123 258,224 102,69 174,102 222,116 21,-9 39,-13 52,-13 22,0 34,9 34,18 0,9 -11,19 -36,18 -12,0 -28,-2 -49,-8 -29,14 -66,39 -109,83 -214,220 -453,181 -507,169 -1,1 -1,2 -2,3 -6,8 -42,-5 -44,-7 -1,-2 7,-28 7,-28l48 10c0,0 -1,4 -3,8 58,13 285,46 490,-165 38,-39 71,-64 100,-79 -50,-16 -119,-50 -211,-113 -150,-101 -221,-180 -261,-226 -23,-25 -36,-39 -46,-41 -14,-2 -30,19 -69,67 -24,30 -56,71 -102,123 -279,318 -483,279 -484,279l3 -15zm1216 -77c9,2 16,2 23,2 14,1 21,-1 21,-3 0,-1 -7,-3 -19,-3 -7,0 -15,1 -25,4z" style="fill: rgb(93, 185, 236); fill-rule: nonzero;" transform="matrix(0.12255483120679854, 0, 0, 0.12255483120679854, -34.85349409102855, -18.196776517535454)"/><path class="fil26" d="M3462 1967c-1,1 -477,184 -739,185 -82,0 -128,-17 -155,-28 -15,-5 -24,-8 -27,-5 -5,7 -9,28 -15,73 -7,48 -18,121 -40,231 -19,96 -50,149 -80,176 57,23 141,69 261,152 536,368 729,-75 763,-173 -4,-2 -7,-4 -7,-4l8 -44 40 15c0,0 -11,43 -19,42 -2,0 -5,-1 -8,-3 -37,104 -236,556 -785,179 -126,-86 -211,-132 -266,-153 -6,4 -12,7 -18,9 -32,13 -59,3 -70,-9 -15,-17 -10,-37 33,-31 13,2 30,6 52,14 30,-23 61,-74 82,-173 22,-109 32,-182 39,-230 7,-48 10,-71 19,-81 10,-11 21,-7 43,1 26,10 71,27 150,27 259,-1 733,-183 734,-183l5 13zm-1093 639l6 -3c-16,-5 -29,-8 -38,-9 -19,-3 -25,2 -21,6 8,9 29,16 53,6z" style="fill: rgb(97, 185, 106); fill-rule: nonzero;" transform="matrix(0.12255483120679854, 0, 0, 0.12255483120679854, -34.85349409102855, -18.196776517535454)"/><path class="fil4" d="M5887 4567c0,0 60,9 78,-1 18,-9 25,-62 25,-62l-91 5 -12 58z" style="fill: rgb(87, 164, 220);" transform="matrix(0.12255483120679854, 0, 0, 0.12255483120679854, -34.85349409102855, -18.196776517535454)"/><path class="fil1" d="M8475 5422c38,-14 71,-31 71,-31 0,0 18,31 18,48 0,18 -68,25 -68,25l-21 -42z" style="fill: rgb(255, 240, 0);" transform="matrix(0.12255483120679854, 0, 0, 0.12255483120679854, -34.85349409102855, -18.196776517535454)"/><path class="fil6" d="M8738 6529c26,0 80,-17 91,-17 11,0 29,36 35,43 5,7 -39,18 -81,21 -41,3 -45,-47 -45,-47z" style="fill: rgb(164, 212, 4);" transform="matrix(0.12255483120679854, 0, 0, 0.12255483120679854, -34.85349409102855, -18.196776517535454)"/><path class="fil4" d="M7362 7229c0,0 254,113 384,232 129,119 147,142 147,142l-69 65c0,0 -262,-336 -462,-439z" style="fill: rgb(87, 164, 220);" transform="matrix(0.12255483120679854, 0, 0, 0.12255483120679854, -34.85349409102855, -18.196776517535454)"/><path d="M 9432 942 A 101 101 0 0 1 9331 1043 A 101 101 0 0 1 9230 942 A 101 101 0 0 1 9331 841 A 101 101 0 0 1 9432 942 Z" class="fil11" style="fill: rgb(247, 147, 62);" transform="matrix(0.12255483120679854, 0, 0, 0.12255483120679854, -34.85349409102855, -18.196776517535454)"/><path d="M 10532 5159 A 254 254 0 0 1 10278 5413 A 254 254 0 0 1 10024 5159 A 254 254 0 0 1 10278 4905 A 254 254 0 0 1 10532 5159 Z" class="fil3" style="fill: rgb(253, 229, 169);" transform="matrix(0.12255483120679854, 0, 0, 0.12255483120679854, -34.85349409102855, -18.196776517535454)"/><path d="M 1811 6789 A 127 127 0 0 1 1684 6916 A 127 127 0 0 1 1557 6789 A 127 127 0 0 1 1684 6662 A 127 127 0 0 1 1811 6789 Z" class="fil1" style="fill: rgb(255, 240, 0);" transform="matrix(0.12255483120679854, 0, 0, 0.12255483120679854, -34.85349409102855, -18.196776517535454)"/><path d="M 1463 2030 H 1596 V 2163 H 1463 V 2030 Z" class="fil5" style="fill: rgb(97, 185, 106);" transform="matrix(0.12255483120679854, 0, 0, 0.12255483120679854, -34.85349409102855, -18.196776517535454)"/><path class="fil0" d="M9038 6065c0,18 -1,127 38,155 40,28 129,5 129,5 0,0 45,-226 22,-223 -23,3 -189,63 -189,63z" style="fill: white;" transform="matrix(0.12255483120679854, 0, 0, 0.12255483120679854, -34.85349409102855, -18.196776517535454)"/>
</svg>